/* XPM */
static char *result[] = {
/* columns rows colors chars-per-pixel */
"40 40 114 2 ",
"   c #BE7754",
".  c #E1685D",
"X  c #E97255",
"o  c #EA5C65",
"O  c #EA516F",
"+  c #ED477B",
"@  c #E05D70",
"#  c #EF597E",
"$  c #C97A6B",
"%  c #E26C61",
"&  c #E76D71",
"*  c #EF607A",
"=  c #F16B7C",
"-  c #F07678",
";  c #B58965",
":  c #B7816F",
">  c #B68E6A",
",  c #BA926D",
"<  c #C1825B",
"1  c #C4885C",
"2  c #E58952",
"3  c #EB805E",
"4  c #EE9253",
"5  c #CB8A63",
"6  c #D28168",
"7  c #E3896F",
"8  c #EA9267",
"9  c #EF9868",
"0  c #EA9574",
"q  c #E59879",
"w  c #F4937B",
"e  c #7C7B83",
"r  c #0077FF",
"t  c #007BFE",
"y  c #977F94",
"u  c #EE4585",
"i  c #E64D8A",
"p  c #EE4E8D",
"a  c #EF5A8F",
"s  c #EF5993",
"d  c #F05A96",
"f  c #D6718F",
"g  c #D17889",
"h  c #DD689A",
"j  c #DD7190",
"k  c #DA7D97",
"l  c #DA719F",
"z  c #EF6588",
"x  c #F27C84",
"c  c #F27788",
"v  c #F27D8B",
"b  c #EF6494",
"n  c #EF6198",
"m  c #E56E9B",
"M  c #F06695",
"N  c #F16B97",
"B  c #F16E99",
"V  c #E57293",
"C  c #ED7597",
"Z  c #E3739D",
"A  c #EB739C",
"S  c #F1739A",
"D  c #F17A9D",
"F  c #CA6EA0",
"G  c #D672A0",
"H  c #E977A0",
"J  c #E47FA6",
"K  c #F174A1",
"L  c #F27DA1",
"P  c #3484CC",
"I  c #2D86D7",
"U  c #2A84DA",
"Y  c #2A8CDA",
"T  c #0B85F4",
"R  c #0083FE",
"E  c #008CFE",
"W  c #0092FE",
"Q  c #8A8E87",
"!  c #828689",
"~  c #8C878D",
"^  c #86898D",
"/  c #8C888C",
"(  c #88908C",
")  c #90928D",
"_  c #868492",
"`  c #8A8590",
"'  c #868B92",
"]  c #8D8A91",
"[  c #A1939D",
"{  c #9B91A3",
"}  c #CD929B",
"|  c #EC8B8F",
" . c #F09284",
".. c #F39888",
"X. c #E38296",
"o. c #EC8890",
"O. c #F28A96",
"+. c #F49A9A",
"@. c #CB86AD",
"#. c #D69DA8",
"$. c #D894B2",
"%. c #E480A6",
"&. c #E386A9",
"*. c #E788AB",
"=. c #F284A3",
"-. c #F38CA3",
";. c #F385A9",
":. c #F38DAA",
">. c #E490A7",
",. c #F49BA2",
"<. c #F494AE",
"1. c #F09FAC",
"2. c #F49AB2",
"3. c #F2A1B6",
/* pixels */
"r r r r r r r r r r r r r r r r r r r r r r r r r r r r r r r r r r r r r r t r ",
"r r r r r r r r r r r r r r r r r r r r r r r r t r r r r r r t r r r r t r t r ",
"r r r r r r r r r r r r t r r t r r t r t r r t r t r r t r r r r r r r r r t r ",
"r r r r r r r r r t t r r t t r t t r t r t r t t r r t r t r t t r t t t r r t ",
"r r t t r r r t t t t t r t t t r t t t t t t t t t t t t t t t t r t r t t t t ",
"t t r t t t t t t t t t t t t t t t t t t t t t t t t t t t t t t t t t t t t t ",
"t t t t t t t t t t t R t t t t t t t r t t t t t t T t t t t t t t t t t R t t ",
"t t t t t t t t t t t t t t R t t t t T t t t t t t t t t t t t R t t R t t t R ",
"t t t t t t t t t t t R t t R t R t t t R t t R t t t t t R t t t t R t R t R t ",
"t t t t R t R t R t t R t R t R t t R R t t R t t T R R R t R R R R t R t R t R ",
"t t R R R t R R t R R t R t t R R R t R R R t R R R R t t R t R R t t R R R R t ",
"R R R t t R t t R t R R R t R R R t R t R t R t R t t R R R t R t R R R R t t R ",
"t R R t R R t R R t R t R t R t I ^ 5 4 2 $ _ U t R R R R R R t R R t t R t R t ",
"t R R t R t R R R R R t R R R ) 9 S A b = # u o / t R t t R R R t R R R T R R R ",
"R R R R t R R t R R R R R R , ..k S A A j M N F * : R R R R R R R R R R R t R R ",
"R t R t R R R R R t R R R ] O.;.V -.<.S f B S D B z ` R R R R R R R R R R R R R ",
"R R R R R R R R R R R R I 0 d B -.:.n B :.N S w D g 3 U R R R R R R R R R R R R ",
"R R R R R R R R R R R R ^ o.M v O.&.M - x <.J S $.C & ! R R R R R R R R R E E R ",
"R R R R R R R R R R R R 1 #.N v D a y T T { A B 2.=.s   R R E R R R R T R E R R ",
"R R R R R R R E R R R R q >.m Z j @ T R R T v d :.D N . R E R R R E R R R R R R ",
"R R R E R R R R E E R R q +.N l B * T R R T +.V D C h % E E R R R E R R R R R E ",
"E R R R E R E R R R E R < ,.S =.M p y T T [ 3.V X.H i < R R E R R E R E E R E R ",
"R R E R R R R R E R R R e | S <.B N N - - L %.D =.K O ( R R E R R R E R E R R E ",
"E E T R E R E E R E R E P 7 *.-.@.N x c L L D 2.B u X I E E R E E E R E R E E R ",
"R E R E R E R E R E E R E / 1.D <.:.B h S S w A p + ~ E E R E R E R E E R E R E ",
"E R E T E R E R E R R E E R >  .} L D G N J M u o ; T R R E E E E R R E R E E E ",
"R R E E R T E R R E E E R E T Q 8 D d M N M u X Q R E E E R E E E E E E E E E E ",
"E E E R E E E E E E R R E E E R Y ' 6 4 2 $ ' Y E E E E E E E E E E E E E E E E ",
"E E E E E E E E E E E E E E E E E E E E E E E E E E E E E E E E E E E E E E W W ",
"E E E E E E E E E E E E E E E E E E E E E E E E E E E E E E E E E E E E E E E W ",
"E E E E E E E E E E E E E E E E E E E E E E W E E E E E E E E E E E E W E E W W ",
"E E E E E E E E E W E E E E E E E E E E E E E E E W E W E E W E E W E E E W W W ",
"E E E W E E E E W E E W E E W E E E W E E E E E W E E W W W W W E E E W W W W W ",
"E E E E W E W E E E E E E W W E W W E W E W W E E W W E W W W W W W E W W W W W ",
"E E W E W E W E W W E E W E E W W W W W W E W E E W W E W W W W W W W W W W W W ",
"W W E W E W E E W E W W E W E W W W W W W W W W W W W W W W W W W W E W W W W W ",
"W E W W E W W W W W W W W W W W W W W W W W W W W W W W W W W W W W W W W W W W ",
"W W E W W W E W W W W W W W W W W W W W W W W W W W W W W W W W W W W W W W W W ",
"W W W W W W W W W W W W W W W W W W W W W W W W W W W W W W W W W W W W W W W W ",
"W W W W W W W W W W W W W W W W W W W W W W W W W W W W W W W W W W W W W W W W "
};
