/* XPM */
static char *result[] = {
/* columns rows colors chars-per-pixel */
"40 40 218 2 ",
"   c #D46C29",
".  c #DA782B",
"X  c #D97938",
"o  c #E17E2D",
"O  c #E27A38",
"+  c #EC3F7F",
"@  c #B7774C",
"#  c #9C7E7E",
"$  c #DC5C49",
"%  c #E35959",
"&  c #D67243",
"*  c #DD7D59",
"=  c #EC7B48",
"-  c #F17A4D",
";  c #ED6958",
":  c #EB755A",
">  c #CF5478",
",  c #E94F6F",
"<  c #EC586B",
"1  c #F05B6E",
"2  c #E84777",
"3  c #ED457C",
"4  c #EE4C7B",
"5  c #EE567A",
"6  c #C77F6A",
"7  c #EE6364",
"8  c #EA6968",
"9  c #EF7E64",
"0  c #EF6873",
"q  c #EF647A",
"w  c #F36E71",
"e  c #EB8D2D",
"r  c #EF922F",
"t  c #F1932F",
"y  c #E78737",
"u  c #EC8C35",
"i  c #EC8A3E",
"p  c #F18E35",
"a  c #F18B39",
"s  c #ED9234",
"d  c #E5933C",
"f  c #EB933A",
"g  c #F39432",
"h  c #F3913B",
"j  c #F39D3E",
"k  c #BD915C",
"l  c #8B8F6A",
"z  c #8B8579",
"x  c #998C7A",
"c  c #959478",
"v  c #BB896D",
"b  c #B59264",
"n  c #B4926C",
"m  c #A68D74",
"M  c #B8827F",
"N  c #A69572",
"B  c #DA9447",
"V  c #D3924A",
"C  c #CF8B52",
"Z  c #C39257",
"A  c #C59158",
"S  c #EB8647",
"D  c #F0844F",
"F  c #E69746",
"G  c #F49844",
"H  c #F49E49",
"J  c #E48458",
"K  c #F08C55",
"L  c #F4A449",
"P  c #F6A848",
"I  c #F1AD4C",
"U  c #F7A851",
"Y  c #CC8665",
"T  c #C6936D",
"R  c #E38464",
"E  c #ED8266",
"W  c #F18766",
"Q  c #EC9267",
"!  c #F49768",
"~  c #F2966C",
"^  c #E68D7C",
"/  c #F4887A",
"(  c #EB9B76",
")  c #F49779",
"_  c #F6A863",
"`  c #307ED5",
"'  c #177CEB",
"]  c #0C7BF3",
"[  c #0077FF",
"{  c #007BFE",
"}  c #087EF8",
"|  c #217CE1",
" . c #EE3C82",
".. c #EE3792",
"X. c #A87D82",
"o. c #B67986",
"O. c #BA7BAB",
"+. c #A87FB1",
"@. c #EE4284",
"#. c #EE4A85",
"$. c #EE4C8A",
"%. c #F04A87",
"&. c #EE5B86",
"*. c #EF528C",
"=. c #F2598E",
"-. c #EE4292",
";. c #EF4C94",
":. c #EF5494",
">. c #EF5C93",
",. c #F05797",
"<. c #F05C94",
"1. c #D3778A",
"2. c #DD738E",
"3. c #DC739A",
"4. c #F06786",
"5. c #F17584",
"6. c #F1718D",
"7. c #EF6292",
"8. c #E76D94",
"9. c #ED6C95",
"0. c #E56E9B",
"q. c #EE6D98",
"w. c #F06595",
"e. c #F16B97",
"r. c #F06599",
"t. c #F16B98",
"y. c #E87A96",
"u. c #ED719C",
"i. c #F17094",
"p. c #F17993",
"a. c #F1739A",
"s. c #F27D9C",
"d. c #C777A6",
"f. c #D573A1",
"g. c #F26EA1",
"h. c #E77BA3",
"j. c #F27BA2",
"k. c #7B8C94",
"l. c #71859C",
"z. c #71899C",
"x. c #78959B",
"c. c #5D86AE",
"v. c #4984BF",
"b. c #4A8ABE",
"n. c #5286B6",
"m. c #5895B5",
"M. c #668AA6",
"N. c #3A83CB",
"B. c #3A8ACB",
"V. c #3893CD",
"C. c #248ADF",
"Z. c #2A88D8",
"A. c #3489D0",
"S. c #2790DC",
"D. c #3292D2",
"F. c #1B83E6",
"G. c #1987E9",
"H. c #148CEC",
"J. c #1992E8",
"K. c #0782F7",
"L. c #0C84F3",
"P. c #0989F6",
"I. c #0083FE",
"U. c #008DFE",
"Y. c #0B92F4",
"T. c #0093FE",
"R. c #2085E2",
"E. c #4487C1",
"W. c #438BC3",
"Q. c #708FC6",
"!. c #8B8988",
"~. c #938C82",
"^. c #8B9488",
"/. c #959786",
"(. c #8B9390",
"). c #A48A88",
"_. c #9C82B5",
"`. c #DC8F9F",
"'. c #C69299",
"]. c #E78A8E",
"[. c #F39A83",
"{. c #F28693",
"}. c #F2819D",
"|. c #ED9A99",
" X c #F39996",
".X c #F4A597",
"XX c #DD86A8",
"oX c #D893B6",
"OX c #D39BBC",
"+X c #ED83A5",
"@X c #E282A9",
"#X c #EE87A8",
"$X c #F283A3",
"%X c #F38AA5",
"&X c #F385AA",
"*X c #F38CAA",
"=X c #F09EA2",
"-X c #F493AD",
";X c #F499AD",
":X c #F48AB3",
">X c #F494B1",
",X c #F59CB3",
"<X c #F59EB9",
"1X c #C8ACAB",
"2X c #F4A3AD",
"3X c #F7A9AB",
"4X c #E9A7B0",
"5X c #F5A2B7",
"6X c #F5A4BA",
"7X c #F5ABBD",
"8X c #F8A9BD",
"9X c #B5A7C7",
"0X c #CDA7C4",
"qX c #F7AEC2",
"wX c #EEB0C3",
"eX c #F7B1C3",
"rX c #F8B6CC",
"tX c #F8BED0",
/* pixels */
"[ [ [ [ [ [ [ [ [ [ [ [ [ [ [ [ [ [ [ [ [ [ [ [ [ [ [ [ [ [ [ [ [ [ [ [ [ [ [ [ ",
"[ [ [ [ [ [ [ [ [ [ [ [ [ [ [ [ [ [ [ [ { [ [ [ [ [ [ [ [ [ [ [ [ [ [ [ { [ [ [ ",
"[ [ [ [ [ [ [ [ [ [ [ { { [ [ { ] ' | ` | ' ] { [ } [ [ [ { [ { [ { [ { [ [ { [ ",
"[ [ [ [ [ { [ { { [ { { ] v.x C B F L L s d B C !.` ] [ { { { { { { { { { { [ { ",
"[ { { { [ [ { [ [ { ' z.V a D 9 W K D - = ; 7 7 - i Z c.] { { { [ { [ { { [ { { ",
"{ { [ { { { { { [ n.C j ! i.t.w.e.e.w.;.4 7 1 +  .3 7 a k ` { { I.{ { { { I.{ { ",
"{ { { { { { { ] !.L P ) >Xe.@XoXe.e.e.e./ ! 4.*.@. . .3 : F l.{ { { { { { I.I.{ ",
"{ { I.{ { { ' n P H .X:Xe.e.e.oXh.w.e.e.t.t.t.t.e.w.=.#. .1 H x } { I.{ I.{ { { ",
"{ { { I.{ L.b j ! 2X&X9.z a.a.a.t.e.q.1.e.e.e.:.t.e._._.7.%.1 a ~.{ { { { I.{ I.",
"{ { I.{ { x G .X-Xa.w.9.z s.}.s.s.a.r.X.X.e.e.-.:.s.u.d.e.e.<.4 u l.I.I.I.{ { I.",
"{ { { I.c.h 2X*XqX$Xe.a.s.}.;X6X%Xs.a.8.o.e.e.s.e.s.}.a.e.t.t.e.q u N.I.I.{ I.I.",
"I.I.{ F.F [.*Xe.j.<Xe.s.}.6X7X:Xj.}.t.e.e.e.e.a.s.}.}.[.p.e.e.e.r.- A } { I.I.{ ",
"I.{ I.x u 6X,.t.w.e.s.}.5X,X$Xa...s.t.e.a.j.e.e.e.s._ ) s.s.1.2.e.w s M.I.{ { I.",
"I.I.F.s J 5X-.;.e.a.}.%X;X}.s.s.t.t.e.j.rX<Xr.t.e.e.! s.*X}.y.l 9.6.u V K.I.I.I.",
"{ I.l.e ^ #Xe.>.e.a.{.-X}.0Xa.t.e.e.e.r.q.$X$Xu.@Xe.e.a.%X;X}.2.8.e.& u b.I.I.I.",
"I.K.T . |.j.e.e.e.p.I $Xs.@X@Xe.*.5.E J W 3XeX>X0Xe.e.e.XX9XXX}.e.w.8 . x I.I.I.",
"I.G.g X 8Xj.e.e.t./ ) s.a.e.w.&.J M.Z.R.Z.!.( 7X+Xq.e.t.@X9XOXy.a.w.&.  V I.I.I.",
"{ B.g ^ qX).t.e.t.s.j.s.t.=.#.Y Z.I.{ I.I.I.E.( #Xe.e.t.s.,X7X}.s.:.7.$ . F.I.I.",
"I.c.f 7X1X# t.e.t.s.a.8.4. .8 n.I.I.I.I.I.I.I.k. Xe.e.w.a.,XqX%X;.;.w.2 y A.K.I.",
"I.z.K eX6Xw.e.0.0.9.9.8.l > * K.I.I.I.I.I.U.I.F.) t...<.a.;X8X}.s.e.w.@.X N.I.I.",
"U.k.~ eX8Xw.t.3.Q.q.e.e.w.2 v I.I.U.I.I.I.I.I.L.( $X-.e.e.$X%Xs.a.e.e. .= b.I.I.",
"I.k.Q eX2Xe.t.t.d.f.e.e.e.%.6 I.I.I.U.I.U.I.I.H.Q 6Xe.e.e.}.s.s.e.e.9.+ = b.U.U.",
"I.M.y qX.X! e.e.e.e.e.e.t.*.: Z.I.I.I.I.I.I.I.b.[.qXj.M 2.j.}.s.f._.*.2 e N.U.I.",
"I.E.o |.6XU e.a.a.a.e.r.;.<.4 m P.U.U.I.I.U.H.T 7X7Xe.2.c ].}.a.+.3.@.% y C.I.U.",
"U.C.y & wXa.t.}.*X-Xa.w.,...%.8 x C.I.U.U.A.T 3X7X#Xq.t.s.s.s.a.e.@.@.O d K.I.I.",
"I.P.&   2X+Xq.s.8XqXs.t.e.t.e.w.5.J v m T R ;X6Xs.OXu.a.s.s.s.a.$. ., e b U.U.U.",
"U.I.z   ].*Xe.a.s.;X$Xg.e.e.t.e.e.t.e.6.9.w.a.e.q.OXt.s.%X}.s.rX@. .; j M.U.I.U.",
"I.U.v.  R 6X9.t.s.<X-Xd.O.e.e.e.e.i.e.e.w.s.e.e.e.a.}.,X,Xs.t.r.g.3 S F J.U.U.U.",
"U.U.P.@ X qX$XOXa.-X7XM.9.e.e.e.U U 6.t.e.rXw.e.s.}.>XqX>Xa.q. . .3 j /.U.U.U.U.",
"U.U.U.v.  =XwXoXe.}.eX+Xe.e.e.e.e.e.e.e.r.tXw.a.s.}.}.$Xa...*. . .7 F S.U.U.U.U.",
"U.U.U.U.x J eX,Xe.s.6X;Xe.*Xj.e.e.q.q.t.e.$Xt.s.s.! / t.e.<. . .3 S x.U.U.U.T.U.",
"U.U.U.U.H.V ~ 7X&Xa.`.8X$X%XtXe.e.q.Q.e.e.e.t.t.e.~ / w.#. . .3 = b P.U.T.U.T.T.",
"U.U.U.U.U.D.d F  X,X^.'.%X}.5X$Xa.e._.3.e.q.e.e.e.e.7.@.+ + < y V J.U.U.T.T.T.T.",
"U.U.T.U.U.U.W.F r Q 4X'.a.a.a.a.a.t.t.e.e.@XOXq.e.7.@. .2 & e V Z.U.T.T.T.T.T.T.",
"U.U.U.U.U.T.U.D.B r S 2X>Xe.e.w.;.<.t.t.e.e.@Xu.w.@.+ < e r Z J.T.T.U.T.T.T.T.T.",
"U.T.U.T.U.T.U.T.J.N t u  X&Xe.:.;.w.t.t.e.e.e.<. .@.< p f ^.Y.T.T.T.U.T.T.T.T.T.",
"T.T.U.T.U.T.T.U.U.Y.m.A g ! {.4.4.q 0 0 0 5 5 4 < - j b V.T.T.T.U.T.T.T.T.T.T.T.",
"U.T.T.T.U.T.U.T.T.T.T.Y.W.N B h P P L P L p a h V c V.Y.T.T.T.T.T.T.T.T.T.T.T.T.",
"T.T.T.U.T.T.T.T.T.T.T.T.T.T.J.V.m.x.(./.(.x.m.D.H.T.T.T.T.T.T.T.T.T.T.T.T.T.T.T.",
"T.T.T.T.T.T.T.T.T.T.T.T.T.T.T.T.T.T.T.T.T.T.T.T.T.T.T.T.T.T.T.T.T.T.T.T.T.T.T.T."
};
