/* XPM */
static char *result[] = {
/* columns rows colors chars-per-pixel */
"40 40 193 2 ",
"   c #0B0102",
".  c #0A0606",
"X  c #140403",
"o  c #1C0604",
"O  c #1A0A07",
"+  c #150A08",
"@  c #1A100D",
"#  c #0B0A12",
"$  c #100C14",
"%  c #240D05",
"&  c #280A05",
"*  c #310304",
"=  c #26130B",
"-  c #2B150B",
";  c #391306",
":  c #32170A",
">  c #3B1C0D",
",  c #2E0E14",
"<  c #251914",
"1  c #341E16",
"2  c #3B1E11",
"3  c #2D211B",
"4  c #3F2113",
"5  c #0A1D35",
"6  c #2C292D",
"7  c #332724",
"8  c #362B2A",
"9  c #441B0D",
"0  c #4A1116",
"q  c #680809",
"w  c #7A0808",
"e  c #4A210F",
"r  c #56220C",
"t  c #5E2A0F",
"y  c #4B2412",
"u  c #4A2B1A",
"i  c #502B1A",
"p  c #67270C",
"a  c #7A300D",
"s  c #682D11",
"d  c #63301A",
"f  c #6E381E",
"g  c #79371A",
"h  c #4F3729",
"j  c #443635",
"k  c #463B3B",
"l  c #6A3C23",
"z  c #643C29",
"x  c #7C293E",
"c  c #6A412A",
"v  c #77472D",
"b  c #644C3D",
"n  c #744B33",
"m  c #6D513F",
"M  c #092C52",
"N  c #213147",
"B  c #143C67",
"V  c #13487B",
"C  c #33506F",
"Z  c #28527B",
"A  c #4D4448",
"S  c #564C4A",
"D  c #5C4E4C",
"F  c #6A4F42",
"G  c #70404D",
"H  c #76594A",
"J  c #725E55",
"K  c #786254",
"L  c #445369",
"P  c #555766",
"I  c #625D66",
"U  c #5F6A77",
"Y  c #676874",
"T  c #6B757E",
"R  c #833815",
"E  c #913F1B",
"W  c #811C28",
"Q  c #8A3A24",
"!  c #9B3F29",
"~  c #8B431D",
"^  c #96441F",
"/  c #844828",
"(  c #844C2C",
")  c #944623",
"_  c #9B4622",
"`  c #9C4B23",
"'  c #964C2B",
"]  c #8B512C",
"[  c #9F5227",
"{  c #9E522B",
"}  c #845132",
"|  c #89553A",
" . c #905431",
".. c #9C5433",
"X. c #975B37",
"o. c #9B5C3A",
"O. c #A04D25",
"+. c #A3552A",
"@. c #A7582E",
"#. c #A44534",
"$. c #A85636",
"%. c #A45D34",
"&. c #A95D33",
"*. c #B35B37",
"=. c #9D603C",
"-. c #A3633D",
";. c #A86238",
":. c #BA693B",
">. c #C2643E",
",. c #815C44",
"<. c #8E5D41",
"1. c #876B57",
"2. c #956B50",
"3. c #926F56",
"4. c #A96A45",
"5. c #B66C42",
"6. c #BA6C42",
"7. c #B96845",
"8. c #BF7146",
"9. c #B6714A",
"0. c #A17250",
"q. c #9C7963",
"w. c #B47C61",
"e. c #C56D4A",
"r. c #C1754B",
"t. c #C77548",
"y. c #C2794D",
"u. c #C57E52",
"i. c #CD7F52",
"p. c #D27E51",
"a. c #DB7E53",
"s. c #CE8353",
"d. c #D28254",
"f. c #D48857",
"g. c #D88759",
"h. c #D68A5A",
"j. c #DE915D",
"k. c #E18C5E",
"l. c #E0915E",
"z. c #D58E62",
"x. c #DF9465",
"c. c #DC986A",
"v. c #D69E75",
"b. c #E29462",
"n. c #E79C68",
"m. c #D4A178",
"M. c #EBA379",
"N. c #095498",
"B. c #1B5690",
"V. c #0865B8",
"C. c #1464B3",
"Z. c #2360A4",
"A. c #3870AB",
"S. c #2B68BC",
"D. c #3475BC",
"F. c #505899",
"G. c #5B6C84",
"H. c #576C88",
"J. c #56759C",
"K. c #797D8C",
"L. c #4B7AA8",
"P. c #1B6DC4",
"I. c #1877CD",
"U. c #0875D8",
"Y. c #1A7BD9",
"T. c #2376C5",
"R. c #2372CA",
"E. c #3178C6",
"W. c #2A7CD1",
"Q. c #0676EC",
"!. c #027BEB",
"~. c #157CE6",
"^. c #047DF4",
"/. c #087DF3",
"(. c #0076FE",
"). c #007BFE",
"_. c #3980BE",
"`. c #7990A9",
"'. c #6790B9",
"]. c #2F81C7",
"[. c #0984ED",
"{. c #1181E6",
"}. c #1B84EC",
"|. c #0887F4",
" X c #0083FE",
".X c #008CFE",
"XX c #1586F1",
"oX c #0092FE",
"OX c #458AD1",
"+X c #6A8FC3",
"@X c #948D8F",
"#X c #AD8A84",
"$X c #9CA5B0",
/* pixels */
"(.(.(.(.(.(.(.(.(.(.(.(.(.(.(.(.(.(.(.(.(.(.(.(.(.(.(.(.(.(.(.(.(.(.(.(.(.(.(.(.",
"(.(.(.(.(.(.(.(.(.(.(.(.).(.(.(.(.(.(.(.(.(.(.(.(.(.(.(.(.(.(.(.(.(.(.(.(.(.(.(.",
"(.(.(.(.(.(.(.(.(.(.(.(.(.(.(.).).(.(.(.(.(.).(.(.(.(.(.(.(.(.(.(.(.(.(.(.(.(.(.",
"(.(.(.(.(.(.(.(.).(.(.(.(.).(.(.(.(.(.(.(.).(.(.(.(.(.).(.(.(.(.(.(.(.).(.).(.).",
"(.(.(.(.(.(.(.(.(.).).(.).).).).).(.(.(.(.).).(.(.).(.).).).(.(.).).(.).(.).(.).",
").(.).(.(.(.(.).).(.).(.(.(.(.(.).).).(.).).(.).).(.).).).(.).).).(.(.).).(.).).",
"(.).(.).).(.).).).).).(.).).).).(.Q.Q.).).).).).).).).).).).).).(.).(.).).).).).",
"(.).).).(.).).).).).).).^././.E.J.G.U A.~.).).).).).).).).).).). X).).). X).).).",
").).).).).).).). X).).^.D.J.G.J 1.3.2.m P T.^.).).). X).).).). X). X).).).).).).",
"). X).).). X).).).).^.E.Y K 1.H F n } n z j Z.).).).).). X). X).).).). X). X X).",
" X).).).).). X).).(.W.U S S m ,.2.5.s.f.d.4.D P. X X).). X).). X). X X). X). X X",
").).). X). X).). X).H.S k j h | y.h.j.h.h.n.m.H.!.). X X). X X). X X). X). X X).",
"). X). X). X). X XR.P k 8 7 z X.y.f.j.l.x.z.0.q.W.). X). X X). X X X).). X). X X",
"). X X X). X X X[.F.A 7 < 1 v ;.5.d.l.b.h.X.c n K.}. X X). X X).). X X X X X).).",
" X X X). X X).).!.C j < @ 1 ( %.;.s.h.f.h.o.z | v.$X}.). X X X X). X X). X). X X",
" X).). X X). X X!.C 3 = = 4 ] ;.;.=.] X.8.u.4.u.n.M.+X X X). X X X X X X X X X X",
" X X). X X X X X XZ 3 O = 2 ( o.v n v } ..6.c.x.z.k.#XXX X X). X X X X X X X X X",
"). X X X X X X X^.Z 3 X O > /  .( i v 4.-...y.x.p.t.w.}. X X X X X X X X X X X X",
" X X X X X X X X XB.7 X X y ]  .f l 4.d.r.$.$.>.p.t.s.OX X X X X X X X X X X X X",
" X X X X X^. X X XC.6 @   > ( X.o.9.d.k.g.-.' 6.e.7.h.'. X X X X X X X X X X X X",
" X X X X X X X X XU.6 - . X f X.4.7.e.a.a.:.;.$.#.e.n.`..X X X X X X X X X X X X",
" X X X X.X X X X X!.N - - = y / ' +.*.>.:.{ Q ! *.d.n.@X[. X.X X.X X X.X.X X.X.X",
" X X.X X X X X X X XV % - > > s g ! _ @.e.&.) &.i.g.n.3._..X X X X X X X X X X X",
" X X.X X X X.X.X X.XV = % : e t s g ) ` *.:.&.;.8.p.f.n T XX X.X.X X.X.X X.X.X X",
".X X X.X X X.X X.X XN.% % % > 2 : r R ^ O.@.+.+.&.&.l u b Y..X X.X X.X X.X.X.X X",
" X.X X.X.X X|..X X.XV.$ % % % O . & p R E ^ ^ ^ [ d = 2 h I. X.X X.X X.X.X X X.X",
" X.X.X X.X X X.X X XU.5 X o o o +   ; p a R ~ [ +.d & : 8 U..X X.X X.X X X.X X.X",
".X X X.X X.X X.X.X.X!.M X o o & o   X r a R ~ [ &.f : e L [..X.X X.X.X.X.X.X.X.X",
" X.X X.X.X X.X.X.X X XN.# X X o       ; s ~ ` { @./ 9 j I..X.X.X.X.X.X.X.X.X.X.X",
".X.X.X.X.X.X.X.X.X.X.X[.B , o o * & * ; p R { &.+.<.I T..X.X.X.X.X.X.X.X.X.X.X.X",
".X.X.X.X X.X.X.X.X.X.X.X/.F.x 0 q w w w W G G.L.L.].XX.X.X.X.X.X.X.X.X.X.X.X.X.X",
".X.X.X.X.X.X.X.X.X X.X.X.X|.Y.P.C.S.R.R.Y.{.|..X.XoX.X.X.X.X.X.X.X.X.X.X.X.XoXoX",
".X.X.X.X.X.X.X.X.X.X.X.X.X.X.X.X.X.X.X.X.X.X.X.X.X.X.X.X.X.XoX.X.XoX.X.XoXoXoXoX",
".X.X.X.X.X.X.X.XoX.X.X.X.XoX.X.X.X.X.X.X.XoXoX.X.XoX.XoXoXoX.XoXoX.X.XoXoXoXoXoX",
".XoX.X.X.XoXoX.X.X.X.X.X.X.XoX.X.XoX.XoXoX.X.X.X.X.XoX.XoXoXoXoX.XoXoXoXoXoXoXoX",
"oX.X.XoX.XoX.X.X.XoXoXoX.XoX.XoX.XoXoXoX.XoXoXoXoXoXoXoXoXoXoXoXoXoX.XoXoXoXoXoX",
".XoX.X.XoX.X.XoX.XoXoXoXoXoXoX.XoXoXoXoXoXoXoXoXoXoXoXoXoXoXoXoXoXoXoXoXoXoXoXoX",
"oX.XoXoXoXoXoX.XoXoXoXoXoXoXoXoXoXoXoXoXoXoXoXoXoXoXoXoXoXoXoXoXoXoXoXoXoXoXoXoX",
"oXoXoX.XoXoXoXoXoXoXoXoXoXoXoXoXoXoXoXoXoXoXoXoXoXoXoXoXoXoXoXoXoXoXoXoXoXoXoXoX",
"oXoXoXoXoXoXoXoXoXoXoXoXoXoXoXoXoXoXoXoXoXoXoXoXoXoXoXoXoXoXoXoXoXoXoXoXoXoXoXoX"
};
