/* XPM */
static char *result[] = {
/* columns rows colors chars-per-pixel */
"40 40 159 2 ",
"   c #000204",
".  c #080505",
"X  c #130807",
"o  c #160C0B",
"O  c #180D0C",
"+  c #1D100F",
"@  c #090E12",
"#  c #030F19",
"$  c #03101B",
"%  c #0C151B",
"&  c #1A1615",
"*  c #161919",
"=  c #240E0C",
"-  c #22100F",
";  c #2A1110",
":  c #221B16",
">  c #241E19",
",  c #381714",
"<  c #30261E",
"1  c #071622",
"2  c #061626",
"3  c #0D1921",
"4  c #031A2E",
"5  c #161E20",
"6  c #001A34",
"7  c #001E3D",
"8  c #1B2527",
"9  c #0C2132",
"0  c #00203E",
"q  c #0F293F",
"w  c #152F33",
"e  c #183437",
"r  c #19373B",
"t  c #222E2F",
"y  c #322A22",
"u  c #302C28",
"i  c #3D332A",
"p  c #283739",
"a  c #323232",
"s  c #431915",
"d  c #4C1D19",
"f  c #531F1B",
"g  c #57221E",
"h  c #40342B",
"j  c #6D2924",
"k  c #712B25",
"l  c #7C302A",
"z  c #5D4A3D",
"x  c #022241",
"c  c #0F2A40",
"v  c #022B51",
"b  c #01315B",
"n  c #01346B",
"m  c #003869",
"M  c #003B70",
"N  c #013E79",
"B  c #374D51",
"V  c #3C5357",
"C  c #004074",
"Z  c #024479",
"A  c #194D78",
"S  c #2A5C63",
"D  c #2D636A",
"F  c #306870",
"G  c #40585B",
"H  c #6A5544",
"J  c #725B4A",
"K  c #78614E",
"L  c #736150",
"P  c #7C6351",
"I  c #4A676A",
"U  c #506E72",
"Y  c #537377",
"T  c #676766",
"R  c #82312B",
"E  c #8B352D",
"W  c #9D3C34",
"Q  c #A53F36",
"!  c #AB4239",
"~  c #B6453B",
"^  c #896E59",
"/  c #8D7868",
"(  c #8D7E73",
")  c #CA4D42",
"_  c #D24F44",
"`  c #D55145",
"'  c #DA5246",
"]  c #A6856C",
"[  c #AD8D73",
"{  c #014383",
"}  c #004589",
"|  c #1E5480",
" . c #004C94",
".. c #00519B",
"X. c #1A5F99",
"o. c #215D8D",
"O. c #225F91",
"+. c #377981",
"@. c #0154A3",
"#. c #0458A8",
"$. c #005BBC",
"%. c #0063B7",
"&. c #266AA1",
"*. c #286EA8",
"=. c #2C79B8",
"-. c #5B7E82",
";. c #0664C1",
":. c #0064CC",
">. c #006CCC",
",. c #0071CC",
"<. c #006BD3",
"1. c #006BDF",
"2. c #007ADF",
"3. c #006EE0",
"4. c #0173E3",
"5. c #007BE5",
"6. c #007BEC",
"7. c #0076F1",
"8. c #017AF5",
"9. c #0076FE",
"0. c #007AFE",
"q. c #3A808A",
"w. c #408C97",
"e. c #668E93",
"r. c #6C959B",
"t. c #719BA2",
"y. c #75A1A7",
"u. c #7BABB1",
"i. c #2F83C7",
"p. c #3086CC",
"a. c #2385DA",
"s. c #338ED7",
"d. c #0082EB",
"f. c #0081F6",
"g. c #0083FE",
"h. c #008CFE",
"j. c #0092FE",
"k. c #57BFCC",
"l. c #59C2D0",
"z. c #A19EA2",
"x. c #82B5BB",
"c. c #CBA485",
"v. c #DFAD87",
"b. c #D5AA8A",
"n. c #CFB49E",
"m. c #E5B693",
"M. c #F4C39E",
"N. c #F5C5A0",
"B. c #FCC7A2",
"V. c #FEC9A3",
"C. c #89BEC5",
"Z. c #90C8CF",
"A. c #95CFD6",
"S. c #98D3DA",
"D. c #9CD8DF",
"F. c #9FDCE4",
"G. c #A0DDE5",
"H. c #A1DFE8",
"J. c #A3E1EA",
/* pixels */
"9.9.9.9.9.9.9.9.9.9.9.9.9.9.9.9.9.9.9.9.9.9.9.9.9.9.9.9.9.9.9.9.9.9.9.9.9.9.9.9.",
"9.9.9.9.9.9.9.9.0.9.9.9.9.9.9.9.9.9.9.9.9.9.9.9.9.9.9.9.9.9.9.9.9.9.9.9.9.9.9.9.",
"9.9.9.9.9.9.9.9.9.9.9.9.9.9.9.9.9.9.9.9.9.0.9.9.9.9.9.9.9.9.9.9.9.9.0.9.9.9.9.9.",
"9.9.9.9.9.9.9.9.9.0.9.9.9.9.9.9.9.9.8.0.9.9.0.9.9.9.9.0.9.9.9.9.0.9.9.9.9.9.9.9.",
"9.9.9.9.9.9.9.9.9.0.9.9.0.9.8.9.0.0.0.0.9.0.9.0.9.0.9.9.0.0.9.8.9.0.9.9.0.9.0.0.",
"9.0.0.9.9.9.9.0.0.9.0.0.0.9.9.8.9.0.9.9.9.0.8.9.0.0.0.0.0.9.9.0.0.0.0.0.0.0.0.0.",
"0.0.9.0.9.0.0.0.0.0.1.M n n n n m :.9.8.} n n n n n n n n n m n $.0.0.0.0.0.0.0.",
"9.0.0.0.0.0.0.8.0.9.6 | &.&.&.&.O.$ 7.n B y.y.y.y.y.y.y.y.y.y.r.8 %.0.0.0.0.0.g.",
"0.9.8.0.0.0.;.x 8.0.$ i.9 9 9 9 *.q 3.1 F.F.F.F.G.G.G.G.D.F.F.F.e.N 0.0.0.0.0.0.",
"0.g.0.g.0.0.0.Z v 0.$ =.w l.k.S o.c 3.1 H.S.I o o V y.8 - & r.F.t.N 0.g.0.g.g.0.",
"0.9.0.0.0.g.g.9.4.g.# =.e q.F D o.c 2.1 J.Y d _ ` j X g _ ~ + C.t.N g.0.g.g.0.0.",
"g.g.0.g.0.0.4.<.8.0.# =.e l.l.D o.X.<.$ J.t ) ` W ! ` . R ` j U t.N g.g.g.0.g.g.",
"0.g.0.g.0.g.} 7 <.0.# =.e w.+.F o.A 3 e.D.8 E Q X ; l , = Q d I t.N 0.0.0.g.g.0.",
"0.g.g.g.0.g.0.g.g.0.# =.8 F +.r A 1 V A.A.G   s W , X ! k = * -.t.N g.g.g.g.0.g.",
"g.g.0.0.g.g.0.4.{ g.# =.* T T a o.a.} 5 J.G.r.+ ~ ! ; ` l 8 Z.F.t.M 0.g.g.0.0.g.",
"g.0.g.g.g.0.6.2 #.0.# =.5 T T a o.q 4.1 J.H.H.y.O ~ ' k p A.F.J.Z.;.g.g.g.g.g.g.",
"0.g.g.0.g.g.2.#.g.g.$ s.O.O.o.o.p.9 4.1 J.F.H.F.u.& f p S.G.G.G.x.@.g.g.g.g.g.g.",
"g.g.g.g.g.g.0.g.g.g.C 2 q q q q 4 v g.1 J.F.F.H.G.x.I D.H.G.G.G.t.N g.g.g.g.g.g.",
"g.g.g.g.0.g.g.g.g.g.g.4.z.v.v.H  .g.g.x y.H.H.H.H.J.H.H.H.H.H.F.V  .g.g.g.g.g.g.",
"g.g.g.g.g.g.g.g.g.g.g.>.z V.V.L @.g.g.<.6 3 * 3 % 3 3 3 3 3 3 @ m f.g.g.g.g.g.g.",
"g.g.g.g.g.g.g.g.g.g.g.>.i V.V.L @.6.g.g.f.5.g.f.6.d.g.f.g.f.g.f.g.g.h.g.g.g.g.g.",
"g.g.g.g.g.g.g.g.g.g.g.<.i V.M.K $ : 3 } 1 : 0 M * & } g.g.g.g.h.g.g.g.g.g.h.g.h.",
"g.g.g.g.g.h.g.%.} ..f.>.i V.V.K H V.b.. c.V.P y V.N.> 4.g.g.g.h.g.h.g.h.h.g.g.g.",
"h.g.g.h.g.g.Z u i > 6 %.h M.V.[ b.V.V.^ V.V.b.] V.V.z >.h.h.g.g.g.h.g.g.g.h.h.g.",
"g.g.g.h.g.h.>.y n.< / 4 h M.V.V.V.V.V.V.V.V.V.V.V.V.z >.g.g.h.g.g.g.h.h.g.h.h.g.",
"g.h.g.g.h.g.g.v & J M.> h M.V.V.V.V.V.V.V.V.V.V.V.V.z >.g.h.g.h.h.g.h.g.h.g.g.h.",
"g.h.h.g.g.g.h.,.& B.B.] h V.V.V.V.V.V.V.V.V.V.V.V.V.z >.g.h.h.g.g.h.g.h.g.h.g.h.",
"h.g.g.h.h.g.h.h.b ^ ^ V.m.M.V.V.V.V.V.V.V.V.V.V.V.V.z >.h.g.h.h.h.h.h.h.h.h.h.h.",
"g.h.h.h.h.h.g.h.2.  K m.V.V.V.V.V.V.V.V.V.V.V.V.V.V.z ,.h.h.g.h.h.h.h.h.h.h.h.h.",
"h.g.h.h.g.h.h.h.h.M y y B.V.V.V.V.V.V.V.V.V.V.V.V.V.( 5.j.h.h.h.h.h.h.h.h.h.h.h.",
"h.h.h.h.h.h.h.h.h.5.@ M.V.V.V.V.V.V.V.V.V.V.V.V.V.V./ 5.h.h.h.h.h.h.h.h.h.h.h.h.",
"h.h.h.h.h.h.h.h.h.h.C P V.V.V.V.V.V.V.V.V.V.V.V.V.V.z ,.h.h.h.j.h.h.h.h.h.h.j.j.",
"h.h.h.h.h.h.h.h.h.h.d.% ] [ [ [ [ [ [ [ [ [ [ [ [ [ h ,.h.h.j.h.j.h.h.h.j.j.j.j.",
"h.h.h.h.h.h.h.h.j.h.h.%.Z Z Z Z Z Z Z Z Z Z Z Z Z Z Z d.j.j.j.h.h.j.j.j.j.j.j.j.",
"j.h.j.h.h.j.h.h.h.h.j.h.h.h.j.h.h.j.h.j.j.h.h.h.j.h.j.h.j.j.j.j.h.j.h.j.j.j.j.j.",
"h.h.j.h.h.j.j.h.h.j.h.j.h.j.h.j.h.j.j.j.h.j.j.j.h.j.j.j.j.j.j.j.j.h.j.j.j.j.j.j.",
"j.h.j.h.j.h.h.j.h.j.j.j.j.j.j.h.j.j.j.j.j.j.j.j.j.j.j.j.j.j.j.j.j.j.j.j.j.j.j.j.",
"j.j.h.j.j.j.j.h.j.j.j.j.j.j.j.j.j.j.j.j.j.j.j.j.j.j.j.j.j.j.j.j.j.j.j.j.j.j.j.j.",
"j.j.h.j.j.j.j.j.j.j.j.j.j.j.j.j.j.j.j.j.j.j.j.j.j.j.j.j.j.j.j.j.j.j.j.j.j.j.j.j.",
"j.j.j.j.j.j.j.j.j.j.j.j.j.j.j.j.j.j.j.j.j.j.j.j.j.j.j.j.j.j.j.j.j.j.j.j.j.j.j.j."
};
