/* XPM */
static char *result[] = {
/* columns rows colors chars-per-pixel */
"40 40 186 2 ",
"   c #563E3D",
".  c #632723",
"X  c #662722",
"o  c #6E302B",
"O  c #133F64",
"+  c #384A5C",
"@  c #174265",
"#  c #1A4264",
"$  c #194667",
"%  c #144268",
"&  c #174468",
"*  c #174E7C",
"=  c #204966",
"-  c #2B4C65",
";  c #24586F",
":  c #215778",
">  c #375F73",
",  c #32597E",
"<  c #385C7C",
"1  c #464546",
"2  c #4F545A",
"3  c #664D4C",
"4  c #435F7C",
"5  c #47686C",
"6  c #47617B",
"7  c #45617D",
"8  c #6B6363",
"9  c #87342D",
"0  c #9F3D34",
"q  c #806857",
"w  c #B69176",
"e  c #BE9577",
"r  c #BC997E",
"t  c #0E4E87",
"y  c #125086",
"u  c #20598F",
"i  c #356582",
"p  c #1765AC",
"a  c #436585",
"s  c #4D7A8D",
"d  c #5E7C80",
"f  c #57728E",
"g  c #59738F",
"h  c #507D8F",
"j  c #507E90",
"k  c #0064C5",
"l  c #016AC7",
"z  c #086AC3",
"x  c #0367C8",
"c  c #0569C9",
"v  c #0069CD",
"b  c #006ACE",
"n  c #076DCF",
"m  c #0D6FCA",
"M  c #086ECC",
"N  c #0F70CA",
"B  c #1071CA",
"V  c #026BD0",
"C  c #006FD7",
"Z  c #0470D2",
"A  c #0B73D3",
"S  c #0074E3",
"D  c #007BE7",
"F  c #0076E8",
"G  c #0077E8",
"H  c #0078E9",
"J  c #0078EA",
"K  c #0079EE",
"L  c #007AEE",
"P  c #007CEF",
"I  c #0079F0",
"U  c #007BF1",
"Y  c #0075FD",
"T  c #0074FE",
"R  c #0075FE",
"E  c #0076FE",
"W  c #0077FE",
"Q  c #0076FF",
"!  c #0077FF",
"~  c #0177FF",
"^  c #0078FD",
"/  c #0079FD",
"(  c #007AFD",
")  c #007BFD",
"_  c #0078FE",
"`  c #0079FE",
"'  c #0078FF",
"]  c #007AFE",
"[  c #007BFE",
"{  c #007AFF",
"}  c #007CFD",
"|  c #007DFD",
" . c #007CFE",
".. c #007DFE",
"X. c #017DFE",
"o. c #007EFE",
"O. c #017EFE",
"+. c #007FFE",
"@. c #017FFE",
"#. c #007EFF",
"$. c #017EFF",
"%. c #007FFF",
"&. c #017FFF",
"*. c #3C848E",
"=. c #5E8086",
"-. c #66898D",
";. c #6A888C",
":. c #638A92",
">. c #638E98",
",. c #7A9A9E",
"<. c #6383A2",
"1. c #719BA0",
"2. c #7DAEB4",
"3. c #0080EF",
"4. c #0080F5",
"5. c #0083F5",
"6. c #0080F8",
"7. c #0082F8",
"8. c #0083FB",
"9. c #0083FD",
"0. c #0080FE",
"q. c #0081FE",
"w. c #0080FF",
"e. c #0081FF",
"r. c #0181FF",
"t. c #0082FE",
"y. c #0083FE",
"u. c #0083FF",
"i. c #0183FF",
"p. c #0084FC",
"a. c #0084FD",
"s. c #0085FD",
"d. c #0086FC",
"f. c #0086FD",
"g. c #0087FD",
"h. c #0084FE",
"j. c #0085FE",
"k. c #0086FE",
"l. c #0087FE",
"z. c #0086FF",
"x. c #0088FD",
"c. c #0088FE",
"v. c #0188FE",
"b. c #0089FE",
"n. c #0089FF",
"m. c #0189FF",
"M. c #008AFE",
"N. c #008BFE",
"B. c #008AFF",
"V. c #008BFF",
"C. c #008CFE",
"Z. c #008DFE",
"A. c #008CFF",
"S. c #008DFF",
"D. c #018DFF",
"F. c #008EFE",
"G. c #008FFE",
"H. c #008FFF",
"J. c #0090FD",
"K. c #0092FD",
"L. c #0093FD",
"P. c #0090FE",
"I. c #0091FE",
"U. c #0092FE",
"Y. c #0093FE",
"T. c #0092FF",
"R. c #0094FD",
"E. c #0095FD",
"W. c #0195FD",
"Q. c #0196FD",
"!. c #0094FE",
"~. c #0194FE",
"^. c #0095FE",
"/. c #0195FF",
"(. c #CCA384",
"). c #D0A586",
"_. c #E1B391",
"`. c #E8B995",
"'. c #EBBA97",
"]. c #F3C09C",
"[. c #F3C19C",
"{. c #FDC8A2",
"}. c #FEC9A3",
"|. c #81B7C3",
" X c #8FC2C9",
".X c #9DDAE2",
/* pixels */
"T E E E E Y R R E E E E E E E E E E E E Y R E E E E R R R R R R R R Q R R R Y R ",
"E E ~ E E E E ~ ~ ~ E E E E E E ~ ! E E ! E E E E E E E ! E Q E E E E E E E E E ",
"E ! E ! E E ! E W W ! ! W E ! W W ! ! ! ! ! ! ! ! ! ! W ! ! W W ! W ! ! W W ! ! ",
"! ~ E ! ! ! ! ! W W W W W _ W _ W ! ^ ^ _ _ _ ^ W _ _ _ ' _ _ _ _ _ W _ _ _ ^ ^ ",
"! ! E W W ! ^ _ ` ^ ^ ` ` ` ^ ` ` ` ` ` ` ` ^ ` ^ ` ^ ` ` ` _ ^ ` ^ ` ^ ` ^ ` ` ",
"_ ` ` ^ _ _ ` ` ` ` ` { ` ` ] ` ` ] ` { ` / / ` ` ` ` { ` ` ` ] ] ` ` ` ` ` ` ] ",
"^ ` ` ` ` ` { ] ] ] ] ] ] ) ] ( ( ( ( ( ( ( ) ) ] ) ( ( ] ] { ] ( ) ] [ ) [ ) [ ",
"` ( ] ` ` ( ) ) ) ) )  .} } } ) } } } }  .} )  .} .... ...}  . .} } }  .| ......",
"( ) ) ) } } )  ...}  ...} ..........}  ........... .............................",
"} }  .} } |  .............X.O.$.$.O.......$...$...O...o...$.$.$.$...O.O.O...$.$.",
"..) ........O.......O.O.$.o.o.$.#.o.o.+.O.#.+.o.%.o.+.+.+.+.+.+.+.+.&.+.@.+.w.w.",
"O.....O.o.o.&.%.%.%.w.%.+.%.%.%.w.w.w.w.w.w.w.w.w.w.w.w.w.w.w.w.w.w.w.w.w.w.w.w.",
"O.%.%.w.w.w.w.%.%.w.w.w.w.w.w.w.w.+.w.w.+.w.w.w.w.w.w.w.w.w.%.w.w.w.0.w.w.w.w.w.",
"w.w.w.w.w.w.w.w.w.w.w.w.w.w.w.w.w.w.w.w.w.w.w.w.w.e.w.w.w.w.w.w.w.w.0.e.w.w.w.w.",
"w.w.w.w.w.w.w.w.w.w.w.w.w.r.e.q.V c x I m N B N n 0.q.e.e.e.q.q.q.q.q.q.q.0.e.w.",
"w.w.w.w.w.w.q.e.e.e.e.t.t.q.F k % ; $ t 2.d 1.-.>.K q.t.t.t.t.t.t.t.q.q.t.t.t.t.",
"q.q.q.q.q.t.t.t.t.t.t.t.t.t.U S & *.: * 8 0 . 9 =.G t.t.t.t.t.t.t.t.t.u.t.t.t.i.",
"q.t.t.t.t.t.t.t.t.t.t.t.t.t.L v @ 5 = > ;.o X   :.H u.u.t.t.u.u.u.u.y.y.y.u.y.t.",
"t.t.u.t.t.t.y.y.y.u.u.u.u.u.J C O - # y .X,.3  X|.P y.u.y.u.h.y.y.y.y.9.y.h.a.a.",
"u.u.u.y.y.t.y.y.y.y.y.y.a.y.y.h.A e u z s h j j i 4.h.h.h.h.h.h.h.y.h.h.a.a.a.j.",
"u.y.9.h.y.h.h.j.h.h.a.h.a.h.6.b M (.2 , 4 7 p 8.p.j.j.j.j.j.j.a.j.j.j.j.j.j.j.j.",
"h.h.j.j.j.a.j.a.j.j.j.j.a.j.Z 1 + ).'.`.].[.f j.j.j.j.j.j.j.j.j.j.j.j.j.z.z.z.z.",
"a.j.j.j.j.j.j.z.j.j.j.j.j.j.7.6 w _.}.}.}.}.g z.j.j.k.z.k.k.k.k.z.k.k.k.k.k.k.k.",
"j.j.z.z.z.j.k.f.z.z.s.k.z.j.k.l q {.}.}.}.}.<.k.k.k.f.k.k.g.g.f.g.g.f.g.g.c.g.g.",
"k.k.f.g.f.g.g.k.f.k.f.g.g.g.g.d.< r r r r r a g.g.g.g.g.g.g.c.g.g.g.c.g.c.c.x.g.",
"f.g.g.g.g.g.g.c.g.g.c.g.l.g.g.g.5.D D D D D 3.g.c.g.c.c.c.g.c.c.c.c.c.c.c.c.c.c.",
"g.c.v.x.x.g.c.c.c.c.c.c.c.c.c.c.c.c.c.x.c.c.c.c.c.c.c.c.c.c.c.c.c.c.b.b.c.b.n.V.",
"c.g.c.c.c.c.c.c.c.c.c.c.c.c.c.c.c.c.b.b.b.n.M.b.b.m.c.n.n.b.B.b.M.M.M.M.N.N.N.A.",
"c.b.b.M.b.b.b.b.n.b.b.b.n.b.b.M.b.b.N.N.N.N.N.N.N.V.V.V.V.V.N.N.N.A.V.N.A.A.A.A.",
"M.M.N.M.M.N.N.N.N.N.M.N.N.A.A.N.N.A.A.N.N.A.A.A.A.A.A.A.A.A.A.A.A.A.A.A.A.A.A.A.",
"N.A.A.A.N.A.A.A.N.A.N.A.V.A.A.A.A.A.A.A.A.A.A.A.A.A.A.A.A.A.A.A.A.A.S.A.A.A.A.A.",
"A.A.A.A.A.A.A.A.A.N.A.A.A.A.N.N.A.A.A.A.A.C.A.A.A.A.A.S.S.Z.S.S.A.A.C.Z.Z.Z.Z.Z.",
"A.C.A.A.A.A.A.A.A.A.A.A.D.A.A.A.A.Z.S.Z.Z.Z.Z.Z.Z.Z.F.F.F.Z.F.F.F.F.F.F.F.F.F.F.",
"Z.Z.Z.Z.Z.Z.Z.F.Z.Z.S.F.Z.F.F.F.F.F.Z.Z.Z.F.F.F.F.F.F.F.H.F.H.H.F.H.H.H.G.G.G.P.",
"F.F.F.F.F.F.F.F.F.F.F.F.F.F.F.F.F.H.F.F.G.F.F.F.H.G.G.G.G.H.H.G.G.P.P.P.P.P.J.I.",
"G.F.F.F.H.H.H.F.F.H.H.G.F.H.H.H.H.G.H.G.G.P.P.P.P.P.J.I.I.J.I.P.I.J.J.I.I.I.I.T.",
"H.H.G.H.G.H.G.G.P.J.J.J.P.J.I.J.I.J.I.I.P.J.I.I.I.J.I.I.I.T.T.T.I.I.I.U.U.T.T.U.",
"P.P.J.P.J.J.J.J.J.J.I.I.I.I.I.I.I.I.U.I.I.I.I.T.T.U.U.U.U.U.U.U.U.L.L.L.L.L.L.!.",
"I.I.I.I.I.I.I.I.I.U.K.U.U.U.U.K.K.Y.Y.L.L.L.L.L.L.!.L.L.!.L.L.!.!.L.!.!.!.!.!.!.",
"I.U.U.U.T.U.U.L.L.L.Y.Y.L.L.L.L.~.!.!.R.!.R.R.!.R.R.!.!.!.!./.R.E.R.R.E.^.W.Q.E."
};
