/* XPM */
static char *result[] = {
/* columns rows colors chars-per-pixel */
"40 40 178 2 ",
"   c #F6C62E",
".  c #F6CE37",
"X  c #F6C93C",
"o  c #F6D23B",
"O  c #9EB55D",
"+  c #9DBA5D",
"@  c #AEBC4D",
"#  c #B1BF49",
"$  c #A4B856",
"%  c #A9B851",
"&  c #91AE6A",
"*  c #94B667",
"=  c #8BAF72",
"-  c #84B277",
";  c #BBBE6A",
":  c #A3B97C",
">  c #F9B848",
",  c #A9C178",
"<  c #DAC951",
"1  c #E9CD45",
"2  c #F5D446",
"3  c #F6D54A",
"4  c #F9C95A",
"5  c #F7D453",
"6  c #F7D959",
"7  c #C0C065",
"8  c #E0CF60",
"9  c #F9CF67",
"0  c #F8DD6A",
"q  c #EFDD7F",
"w  c #FAD074",
"e  c #F8DF74",
"r  c #0076FE",
"t  c #007BFE",
"y  c #5D9E9F",
"u  c #609F9C",
"i  c #6FAD8D",
"p  c #79A782",
"a  c #66A596",
"s  c #69A394",
"d  c #7BAA9B",
"f  c #4F97AE",
"g  c #5297AA",
"h  c #539AAA",
"j  c #4599B7",
"k  c #4294BA",
"l  c #4EA4AE",
"z  c #57A5A6",
"x  c #45A1B8",
"c  c #5DA7B0",
"v  c #70ABAB",
"b  c #2E8FCF",
"n  c #318ECD",
"m  c #2F99CE",
"M  c #3A9DC3",
"N  c #3492C9",
"B  c #2C8CD1",
"V  c #248ADA",
"C  c #268ADA",
"Z  c #2899D6",
"A  c #2396DB",
"S  c #3492D6",
"D  c #1984E5",
"F  c #1384ED",
"G  c #1388EA",
"H  c #0F90EF",
"J  c #1C95E1",
"K  c #1492EA",
"L  c #0781F7",
"P  c #0A82F5",
"I  c #0C8DF3",
"U  c #0082FE",
"Y  c #008CFE",
"T  c #0B8BFE",
"R  c #118EF0",
"E  c #138CFE",
"W  c #0092FE",
"Q  c #0E91F8",
"!  c #1A93FA",
"~  c #1B94FE",
"^  c #248DE7",
"/  c #2B92EA",
"(  c #339AEC",
")  c #2394FC",
"_  c #2997F8",
"`  c #2598FE",
"'  c #2C9AFD",
"]  c #319CFF",
"[  c #3AA3FE",
"{  c #4AA1C3",
"}  c #51A2D8",
"|  c #6CAFC6",
" . c #7EBAC4",
".. c #73B4D1",
"X. c #42A4FE",
"o. c #4AA9FE",
"O. c #53ADFF",
"+. c #59ADFE",
"@. c #5AB1FE",
"#. c #6DB8EB",
"$. c #64B5FF",
"%. c #6DB9FE",
"&. c #74BBFE",
"*. c #7ABEFE",
"=. c #7BC1FE",
"-. c #82B197",
";. c #96BD97",
":. c #87B8AC",
">. c #8CBEBA",
",. c #92BAB4",
"<. c #BFCE8E",
"1. c #C0CF8E",
"2. c #D9DA94",
"3. c #E4D882",
"4. c #FBD488",
"5. c #E1DB96",
"6. c #FADE95",
"7. c #FBDA9B",
"8. c #F9E282",
"9. c #FAE48B",
"0. c #FAE695",
"q. c #FAE799",
"w. c #FAE89D",
"e. c #C2D4A9",
"r. c #FCDDA7",
"t. c #EBE4AC",
"y. c #FCE1A7",
"u. c #F9E9A3",
"i. c #FBE6AE",
"p. c #FBEBAC",
"a. c #FCE4B3",
"s. c #FBEEB4",
"d. c #FCE5BA",
"f. c #FCEEBB",
"g. c #FCF0BC",
"h. c #9FC9D3",
"j. c #85C3E2",
"k. c #97CAEA",
"l. c #84C5FE",
"z. c #8DC9FF",
"x. c #9DCDF3",
"c. c #94CCFE",
"v. c #9ACEFF",
"b. c #9DD0FE",
"n. c #A4D2F0",
"m. c #A3D2FD",
"M. c #ACD7FE",
"N. c #ADD8FE",
"B. c #B3DBFF",
"V. c #B9DEFE",
"C. c #BDE0FF",
"Z. c #C7DAC8",
"A. c #CADDD8",
"S. c #E9EBCC",
"D. c #FDEAC3",
"F. c #FDEDCB",
"G. c #FCF2C5",
"H. c #FCF2CC",
"J. c #FDEFD2",
"K. c #FDF3D2",
"L. c #FDF4DB",
"P. c #DDEBEC",
"I. c #C6E4FE",
"U. c #CAE6FF",
"Y. c #CFE8FF",
"T. c #D3EAFE",
"R. c #DBEEFF",
"E. c #EAF0E1",
"W. c #FDF5E4",
"Q. c #FEF9E7",
"!. c #FEF7E9",
"~. c #FEFAED",
"^. c #E8F1F3",
"/. c #E2F1FF",
"(. c #EBF5FE",
"). c #FEFCF4",
"_. c #F4FAFF",
"`. c #FEFEFD",
/* pixels */
"r r r r r r r r r r r r r r r r r r r r r r r r r r r r r r r r r r r r r r r r ",
"r r r r r r r r t r r r r r r r t r r r r r r r r r r r r r r r r r r r r r r r ",
"r r r r r r r r r r r r r r r r r r r r r r t r r r r r r r r r r r r r r r r r ",
"r r r r r r r r r r r r r r r r r r t r t r r r r r r t r r r r r t r r r r r r ",
"r r r r r r r r t r r r r t t t r t r g r r t r r r r r t r t r r t t t t r t r ",
"r t r t r r r t t r n r t r t t t r r & D t r t t t t r r t r t t r t r t r t t ",
"t r r r r r t t r t & k t t t t t t t - n r t t t t k f t t t t t t t t t t t t ",
"t t t t t t t t t t t @ V t t t t t t s k r t t t t O B t t t t U t t t t t t t ",
"t t t t t t t t t t t n @ P t t t t r u f t t t t D $ r t t t U t U t t t U t t ",
"t t t t t t U t U t U t h & t t U U t F F U t U t h a t t U U t t t U t t t U t ",
"t t U t t t t t t t t U t p n U t U U P F F L t L P P U U t t U U L t U U t U U ",
"U t U t U t U U U U U t U t U U t { : < 1 1 < : j U U t U U t U V $ P t U U U t ",
"t U U t U U U t t U U U t U t C 7 2 o o o o 3 5 2 ; ^ U U U L s % b U U U U U U ",
"t U t U t U U U t U U t t U } t.p.e 2 o 6 p.s.w.f.3 8 S t U O s P t U U t U t t ",
"U U U U y b L U U U U t U ^ S.8.6 4.p.X G.6.H.K.L.f.q.5.^ E / E U U t U U U U U ",
"U t t U k = $ p N L ] c.N.P.q.o .   0.i.4.!.Q.).L.~.q.f.A.*.v.$.%.U U U U U U U ",
"t U U U U U G j = 1.T.+.} e 6 .     9 F.7.r.F.D.!.).L.e K.x.(.U.&.@.U U U U U U ",
"U U U t U U U U _ T._ U d o o . 5 y.K.D.!.!.4.d.r.D.K.`.Q.,.$.Y.*.m.E U U U U U ",
"U U U E _ O.X.T z.+.U U , . o 5 F.w D.J.d.r.7.r.W.F.).`.`.^.) m.T...h.j U U U U ",
"U U $.M.*.*.c.R.U.T U E q 0 3 f.i.).D.).!.> 7.J.).`.`.~.`.`.k.e.A.S.Z.:.Y U U Y ",
"U c.*.U U U U Y ) U $.(.`.).).).!.a.4 `.`.a.4.!.~.L.`.s.p.).R.T._._.V./.v.~ Y U ",
"&.%.U Y Y U U U U O.`.I.Z.Q.`.`.K.`.`.~.L.W.d.L.).`.`.L.`.`.`.`.`.`.`.`._.v.E U ",
"M.T U U U U Y U T V.I.B.^.).G.).).`.`.d.J.`.`.`.`.`.).~.`._.v.`.Y.Y.`.`.`.R.&.Y ",
"c.U U Y Y U U U ` _.=.(.( 3.).H.D.).`.`.`.W.`.`.`.`.).).`.M.M.`.l.(.`.I.R./.$.U ",
"N.E Y ! [ U Y U Q Y.n.).U.P.).w.g.K.a.`.J.F.`.`.`.`.).L.).=.T.C._.`.`.V.T.Y.l.Y ",
"o.b.%.l.@.[ U I j : E.`._.`.).H.s.H.G.`.`.`.`.`.`.`.~.P.`.T.T._.`./.R./.v.c.@.U ",
"Y ~ ~ L Y #.>.<.;.Z ` V.(._.(.Q.G.e 2 0.).`.`.`.K.K.A.) m.`.`._.I.N.~ [ z.$.Y Y ",
"Y U Y Y Y a c _ Y U Y T ' o.O.' v 1 o o 6 9.s.u.2.| Y Y Y [ j.2. .Q Y Y Y Y Y Y ",
"U Y Y Y Y Y Y U Y U Y U U Y Y U Y R { -.: : -.{ I Y Y Y Y Y Y J * = H Y Y Y Y Y ",
"Y U Y U Y U Y Y Y Y Y Y Y Y Y Y K Y Y Y Y Y Y m Y Y Y Y Y Y Y Y Y j A Y Y Y Y Y ",
"Y Y Y Y Y Y Y Y U Y Y Y Y Y Y M - Y Y Y U Y Y # R Y Y Y Y Y Y Y Y Y Y Y Y Y Y Y ",
"Y Y Y Y Y Y Y Y Y Y Y Y Y Y Y $ A Y Y Y Y Y Y i z Y Y Y Y Y Y Y Y Y Y Y Y Y W W ",
"Y Y Y Y Y Y Y Y Y Y Y Y Y Y M * Y Y Y Y Y Y Y H @ W W Y W Y W Y Y Y Y W W W W W ",
"Y Y Y Y Y Y Y W Y Y Y Y Y W # J Y W Y Y Y W Y Y + K W Y W W Y W Y W W Y W W W W ",
"Y Y Y Y Y Y Y Y Y Y Y W Y x z Y Y Y Y W Y Y Y Y i l Y W W W W W Y W W Y W W W W ",
"W Y W Y Y W W Y Y W W Y W Y W Y W Y W W W W W W m A Y W W W W W W Y W W W W W W ",
"W Y Y W Y W Y W W Y W W W W W Y W W W W W W W W W W W W W W W W W W W W W W W W ",
"W W W Y W Y W Y W W W W W Y W W W W W W W W W W W W W W W W W W W W W W W W W W ",
"W W W W W W W W W W W W W W W W W W W W W W W W W W W W W W W W W W W W W W W W ",
"Y W W W W W W W W W W W W W W W W W W W W W W W W W W W W W W W W W W W W W W W "
};
