/* XPM */
static char *result[] = {
/* columns rows colors chars-per-pixel */
"40 40 85 1 ",
"  c #0075FD",
". c #0074FE",
"X c #0075FE",
"o c #0076FE",
"O c #0077FE",
"+ c #0076FF",
"@ c #0077FF",
"# c #0177FF",
"$ c #0078FD",
"% c #0079FD",
"& c #007AFD",
"* c #007BFD",
"= c #0078FE",
"- c #0079FE",
"; c #0078FF",
": c #007AFE",
"> c #007BFE",
", c #007AFF",
"< c #007CFD",
"1 c #007DFD",
"2 c #007CFE",
"3 c #007DFE",
"4 c #017DFE",
"5 c #007EFE",
"6 c #017EFE",
"7 c #007FFE",
"8 c #017FFE",
"9 c #007EFF",
"0 c #017EFF",
"q c #007FFF",
"w c #017FFF",
"e c #0082FD",
"r c #0083FD",
"t c #0080FE",
"y c #0081FE",
"u c #0080FF",
"i c #0081FF",
"p c #0181FF",
"a c #0082FE",
"s c #0083FE",
"d c #0083FF",
"f c #0183FF",
"g c #0084FD",
"h c #0085FD",
"j c #0086FD",
"k c #0087FD",
"l c #0084FE",
"z c #0085FE",
"x c #0086FE",
"c c #0087FE",
"v c #0086FF",
"b c #0088FD",
"n c #0088FE",
"m c #0188FE",
"M c #0089FE",
"N c #0089FF",
"B c #0189FF",
"V c #008AFE",
"C c #008BFE",
"Z c #008AFF",
"A c #008BFF",
"S c #008CFE",
"D c #008DFE",
"F c #008CFF",
"G c #008DFF",
"H c #018DFF",
"J c #008EFE",
"K c #008FFE",
"L c #008FFF",
"P c #0090FD",
"I c #0092FD",
"U c #0093FD",
"Y c #0090FE",
"T c #0091FE",
"R c #0092FE",
"E c #0093FE",
"W c #0092FF",
"Q c #0094FD",
"! c #0095FD",
"~ c #0195FD",
"^ c #0196FD",
"/ c #0094FE",
"( c #0194FE",
") c #0095FE",
"_ c #0195FF",
/* pixels */
".oooo XXoooooooooooo XooooXXXXXXXX+XXX X",
"oo#oooo###oooooo#@oo@ooooooo@o+ooooooooo",
"o@o@oo@oOO@@Oo@OO@@@@@@@@@@O@@OO@O@@OO@@",
"@#o@@@@@OOOOO=O=O@$$===$O===;=====O===$$",
"@@oOO@$=-$$---$-------$-$-$---=$-$-$-$--",
"=--$==-----,--:--:-,-%%----,---::------:",
"$-----,::::::*:&&&&&&&**:*&&::,:&*:>*>*>",
"-&:--&*****2<<<*<<<<2<*2<3323<22<<<21333",
"&***<<*23<23<33333<233333233333333333333",
"<<2<<12333333460063330303635300003666300",
"3*3333633366055095576975q577777777w787uu",
"633655wqqquq7qqquuuuuuuuuuuuuuuuuuuuuuuu",
"6qquuuuqquuuuuuuu7uu7uuuuuuuuuquuutuuuuu",
"uuuuuuuuuuuuuuuuuuuuuuuuuiuuuuuuuutiuuuu",
"uuuuuuuuuuuuupiyyyiuyuyttiyiiiyyyyyyytiu",
"uuuuuuyiiiiaayyyyaiyeyyyyyyaaaaaaayyaaaa",
"yyyyyaaaaaaaaaaaaaaaaaaaaaaaaaaaaaadaaaf",
"yaaaaaaaaaaaaadaddaaaaddadddaaddddsssdsa",
"aadaaasssddddddddddddddddssdsdlssssrslgg",
"dddssassssssgssllglslglggglllllllsllgggz",
"dsrlsllzllglglsslgzgllgzzzzzzzzgzzzzzzzz",
"llzzzgzgzzzzgzzzgzzzzzzzzzzzzzzzzzzzvvvv",
"gzzzzzzvzzzzzzzzzvzzvvzvzzxvxxxxvxxxxxxx",
"zzvvvzxjvvhxvzxxhxjvvxxxxxjxxkkjkkjkknkk",
"xxjkjkkxjxjkkkkjjjkjkkkkkkkkkknkkknknnbk",
"jkkkkkknkknkckkkkkkckkkknknnnknnnnnnnnnn",
"knmbbknnnnnnnnnnnnnbnnnnnnnnnnnnnnMMnMNA",
"nknnnnnnnnnnnnnnnnMMMNVMMBnNNMZMVVVVCCCF",
"nMMVMMMMNMMMNMMVMMCCCCCCCAAAAACCCFACFFFF",
"VVCVVCCCCCVCCFFCCFFCCFFFFFFFFFFFFFFFFFFF",
"CFFFCFFFCFCFAFFFFFFFFFFFFFFFFFFFFFGFFFFF",
"FFFFFFFFFCFFFFCCFFFFFSFFFFFGGDGGFFSDDDDD",
"FSFFFFFFFFFFHFFFFDGDDDDDDDJJJDJJJJJJJJJJ",
"DDDDDDDJDDGJDJJJJJDDDJJJJJJJLJLLJLLLKKKY",
"JJJJJJJJJJJJJJJJJLJJKJJJLKKKKLLKKYYYYYPT",
"KJJJLLLJJLLKJLLLLKLKKYYYYYPTTPTYTPPTTTTW",
"LLKLKLKKYPPPYPTPTPTTYPTTTPTTTWWWTTTRRWWR",
"YYPYPPPPPPTTTTTTTTRTTTTWWRRRRRRRRUUUUUU/",
"TTTTTTTTTRIRRRRIIEEUUUUUU/UU/UU//U//////",
"TRRRWRRUUUEEUUUU(//Q/QQ/QQ////_Q!QQ!)~^!"
};
