/* XPM */
static char *result[] = {
/* columns rows colors chars-per-pixel */
"40 40 112 2 ",
"   c #F7A30D",
".  c #F7A711",
"X  c #F7AA14",
"o  c #F7AF19",
"O  c #F6B31C",
"+  c #F6B620",
"@  c #F6BA23",
"#  c #F6BE28",
"$  c #F6C32D",
"%  c #F6C731",
"&  c #F6CB35",
"*  c #F6CF38",
"=  c #F6D23B",
"-  c #9EB55D",
";  c #9DBA5D",
":  c #ADBC4D",
">  c #B1BF49",
",  c #A6B654",
"<  c #A6B854",
"1  c #A9B952",
"2  c #A1B659",
"3  c #91AE6A",
"4  c #8EB36D",
"5  c #94B667",
"6  c #98B561",
"7  c #8AAF72",
"8  c #82AF79",
"9  c #86B275",
"0  c #83B179",
"q  c #B5BE6E",
"w  c #BBBE6A",
"e  c #AFBC73",
"r  c #A3B67D",
"t  c #A5BA7B",
"y  c #A8BB78",
"u  c #B2BD70",
"i  c #DFCB4D",
"p  c #D4C756",
"a  c #DAC951",
"s  c #EACE44",
"d  c #E2CC4A",
"f  c #C0C065",
"g  c #0076FE",
"h  c #007BFE",
"j  c #3E9BBF",
"k  c #609F9C",
"l  c #5DA39E",
"z  c #6FAD8D",
"x  c #7AA680",
"c  c #7AA882",
"v  c #71A88A",
"b  c #66A396",
"n  c #69A394",
"m  c #69AA93",
"M  c #7BAB9B",
"N  c #4F98AD",
"B  c #5297AA",
"V  c #529BAB",
"C  c #4593B7",
"Z  c #459AB6",
"A  c #489AB4",
"S  c #4294BA",
"D  c #419ABA",
"F  c #509ABF",
"G  c #4EA4AE",
"H  c #56A1A6",
"J  c #59A5A3",
"K  c #52A4AB",
"L  c #48A1B4",
"P  c #41A1BB",
"I  c #5FA3B2",
"U  c #6CA8A7",
"Y  c #6CA8A8",
"T  c #62A5B0",
"R  c #2E8FCF",
"E  c #318ECD",
"W  c #2F99CE",
"Q  c #3894C4",
"!  c #3598C7",
"~  c #3A9DC3",
"^  c #3492C9",
"/  c #2787D6",
"(  c #2C8CD1",
")  c #2087DC",
"_  c #248CD9",
"`  c #2C8FDB",
"'  c #2A94D2",
"]  c #2396DB",
"[  c #3392D6",
"{  c #0F87EE",
"}  c #1984E5",
"|  c #1A8EE3",
" . c #1384ED",
".. c #128CEC",
"X. c #188BEB",
"o. c #1C95E1",
"O. c #1492EA",
"+. c #0781F7",
"@. c #0A83F4",
"#. c #0A8BF4",
"$. c #0083FE",
"%. c #008CFE",
"&. c #118DF1",
"*. c #0C91F2",
"=. c #0092FE",
"-. c #238CE2",
";. c #4196CB",
":. c #47A0C5",
">. c #4CA1C1",
",. c #8DB18E",
"<. c #9AB484",
"1. c #83B195",
/* pixels */
"g g g g g g g g g g g g g g g g g g g g g g g g g g g g g g g g g g g g g g g g ",
"g g g g g g g g g h g g g g g g g g g g g g g g g g g g g g g g g g g g g g g g ",
"g g g g g g g g g g g g g g g g g g g g g g g g g g g g g g g g g g g g g g g g ",
"g g g g g g g g g g g g g g g h g g h g g h g g g g h g g g g g g h g g g g g g ",
"g g g g g g g g g h g g g h h h h g g B h g h h g h g g h h g g g h h g g h h h ",
"g h g h g g g h h g E g h g h h h h g 3 ) h h g h g g h h g h h h h h h h g h h ",
"h g g g g g h h h h 3 C h h h h h h h x ( g g h h h C N h h h g h h g h h h h h ",
"h h h h h h h h h h h : / h h h g h h v j g g h h h - / h h h h h h h h h h h h ",
"h h h h h h h h $.h h ^ : h h h h $.g k B $.$.h +.} , h h h h h $.h h h h h $.h ",
"h h h h h $.h h h h h h V 3 +.h h h h X. .h h h h V k $.h $.h $.h h h $.h $.h h ",
"h h $.h h h $.h h h $.h h c E h $.h h @. . .@.h $.{ h h $.h $.h $.+.h $.$.h $.$.",
"h $.h h h h $.h $.$.h $.h $.$.$.h >.<.a s s a <.F $.h $.$.$.h $._ 2 +.h h $.$.h ",
"$.h h $.$.h $.h h $.h $.$.h h ` f = = = = = = = = q -.h h h +.n 1 R $.$.h $.$.h ",
"$.$.$.h h $.$.h h $.$.$.h $.;.d = = = = * = = = = = d [ $.$.2 n +.$.h $.$.h $.$.",
"h $.$.$.l ' h $.$.$.h h $.-.d = = = & % $ $ $ & = = = a X.$.{ $.$.h h $.$.h $.h ",
"$.h h $.S 7 1 c ^ +.$.$.$.e = = & % # O O O + + % * = * r $.$.$.$.$.$.$.$.$.$.$.",
"$.h $.$.$.h ..A 7 < Q $.[ = = = % $ O O o o X o O % = = = -.$.$.$.$.$.$.$.h $.$.",
"$.$.$.$.$.$.$.$.$.@.+.$.M = = * $ O O o X X . X O @ & = = M $.$.$.$.$.$.$.$.$.$.",
"$.$.$.h $.$.$.$.$.$.$.$.w = = % $ O o .       . o O % = = <.%.@._ j V Z $.$.$.+.",
"$.$.$.$.$.$.$.$.$.$.$.$.a = = $ O o X         . o O % = = q | 2 4 v l H $.$.$.%.",
"$.$.$.$.$.$.$.$.$.$.$.$.p = = % O o X           X O % = = u $.$.%.$.$.$.$.%.%.$.",
"$.$.$.$.$.$.%.$.$.%.$.$.t = = & $ O X .       X o + * = = ,.$.%.$.$.$.%.$.$.$.$.",
"$.$.$.$.%.$.$.$.$.$.%.$.T = = * $ O O X     X X o $ * = * I $.%.%.$.$.%.%.$.%.$.",
"%.$.$.%.$.$.%.$.%.%.$.$.X.s = = & O O O . . X o # * = = i #.%.$.+.%.$.$.$.%.$.$.",
"$.%.$.%.+.$.%.$.%.$.' l %.M = = = % + O o O + $ * = = = U $.%.$.$.%.$.%.$.%.$.%.",
"$.$.%.+.%.$.%.#.D 6 6 ! $.#.q = = = = % $ $ * = = = = y #.#.%.%.%.$.%.$.%.$.%.$.",
"%.%.$.%.%.o.b 1 0 ' %.$.%.$.&.u = = = = = * = = = = t #.$.l 8 ..$.%.%.$.%.$.%.%.",
"%.$.%.$.$.l H ..$.%.$.%.$.%.%.#.Y i = = = = = = a T %.$.%.%.K : j %.%.%.%.%.%.%.",
"$.%.%.%.%.$.%.%.%.$.%.$.%.%.%.%.%...>.1.t t M :.#.%.%.%.%.%.%.o.5 9 O.%.%.%.%.%.",
"%.$.%.$.%.%.%.%.%.%.%.%.%.%.%.%.O.%.%.%.%.%.%.W %.%.%.%.%.%.%.%.%.L ] %.%.%.%.%.",
"%.%.%.%.%.%.%.%.%.%.$.%.%.%.%.~ 0 %.%.%.%.%.%.> O.%.%.%.%.%.%.%.%.%.=.%.%.%.%.%.",
"%.%.%.%.%.%.%.%.%.%.%.%.%.%.%.2 ] %.%.%.%.%.%.m J %.%.%.%.%.%.%.%.%.%.%.%.%.=.=.",
"%.%.%.%.%.%.%.%.%.%.%.%.%.%.~ 5 %.%.%.%.=.%.%.*.: =.=.%.%.%.=.%.=.%.%.=.=.=.=.=.",
"%.%.%.%.%.%.%.=.%.%.%.=.%.=.> o.=.%.%.%.%.%.%.=.; O.=.%.=.=.=.%.%.=.=.%.=.=.=.=.",
"%.=.=.%.=.%.=.%.=.%.%.%.%.P K =.%.=.=.=.=.%.=.%.z G %.=.=.=.=.=.%.=.=.%.=.=.=.=.",
"=.%.%.=.%.=.%.%.%.=.=.%.=.%.=.%.%.=.%.=.=.%.=.%.W ] =.=.=.=.=.=.=.%.=.=.=.=.=.=.",
"%.=.%.=.%.=.%.=.=.=.=.=.=.%.=.=.=.=.=.=.=.=.=.=.=.=.=.=.=.=.=.=.=.=.=.=.=.=.=.=.",
"=.%.=.%.=.%.=.%.%.=.=.=.=.=.%.=.=.=.=.=.=.=.=.=.=.=.=.=.=.=.=.=.=.=.=.=.=.=.=.=.",
"=.=.=.=.=.=.=.=.=.=.=.=.=.=.=.=.=.=.=.=.=.=.=.=.=.=.=.=.=.=.=.=.=.=.=.=.=.=.=.=.",
"=.=.=.=.=.=.=.=.=.=.=.=.=.=.=.=.=.=.=.=.=.=.=.=.=.=.=.=.=.=.=.=.=.=.=.=.=.=.=.=."
};
