/* XPM */
static char *result[] = {
/* columns rows colors chars-per-pixel */
"40 40 196 2 ",
"   c #2A1B29",
".  c #391C2D",
"X  c #25212F",
"o  c #252332",
"O  c #2C2634",
"+  c #2E2D3C",
"@  c #332837",
"#  c #36323C",
"$  c #3C333B",
"%  c #43212C",
"&  c #582F36",
"*  c #42363D",
"=  c #423C3F",
"-  c #64373A",
";  c #723D3E",
":  c #64423F",
">  c #2E3042",
",  c #3B3A48",
"<  c #413D46",
"1  c #6F3F44",
"2  c #723F42",
"3  c #354E72",
"4  c #4C4549",
"5  c #4D444C",
"6  c #564549",
"7  c #454052",
"8  c #524C55",
"9  c #594953",
"0  c #4D505D",
"q  c #585154",
"w  c #634041",
"e  c #6C4746",
"r  c #634C4D",
"t  c #724244",
"y  c #7B4444",
"u  c #764B47",
"i  c #7C4947",
"p  c #7A4B4B",
"a  c #7B514D",
"s  c #7A4F52",
"d  c #6B575B",
"f  c #785754",
"g  c #7A5B5C",
"h  c #4C5C79",
"j  c #615863",
"k  c #7B6365",
"l  c #7B6864",
"z  c #666471",
"x  c #756D72",
"c  c #834A4B",
"v  c #854B4A",
"b  c #83534E",
"n  c #8A514E",
"m  c #91524D",
"M  c #894F50",
"N  c #845552",
"B  c #8D5453",
"V  c #835954",
"C  c #8B5C55",
"Z  c #835C5A",
"A  c #8E5D5B",
"S  c #945655",
"D  c #955A55",
"F  c #96555B",
"G  c #945D5A",
"H  c #9C5D5A",
"J  c #A05F5D",
"K  c #866159",
"L  c #8A635C",
"P  c #93625D",
"I  c #9C625C",
"U  c #A6655F",
"Y  c #A75B62",
"T  c #826463",
"R  c #8B6361",
"E  c #896C69",
"W  c #9A6764",
"Q  c #956965",
"!  c #9A6669",
"~  c #9C6D69",
"^  c #97766D",
"/  c #876C71",
"(  c #8B7372",
")  c #83777C",
"_  c #997674",
"`  c #977978",
"'  c #A36662",
"]  c #A46B65",
"[  c #AA6C66",
"{  c #A36C6B",
"}  c #AB6E68",
"|  c #B36E6B",
" . c #AB7167",
".. c #A4726B",
"X. c #A5756B",
"o. c #AD746B",
"O. c #AB7A6E",
"+. c #B2746C",
"@. c #B3786F",
"#. c #A57475",
"$. c #AC7C73",
"%. c #A97D7A",
"&. c #B37671",
"*. c #B97D75",
"=. c #B37D7A",
"-. c #99817C",
";. c #AE8374",
":. c #A3847D",
">. c #AE877D",
",. c #AB897E",
"<. c #B38276",
"1. c #B3837C",
"2. c #BA847C",
"3. c #B0897F",
"4. c #2463A1",
"5. c #566D8F",
"6. c #777483",
"7. c #747E94",
"8. c #5E7EAD",
"9. c #1875C5",
"0. c #2C7CC4",
"q. c #157FEE",
"w. c #0076FE",
"e. c #007BFE",
"r. c #0C7EF8",
"t. c #857D82",
"y. c #987885",
"u. c #817A99",
"i. c #A37F81",
"p. c #B17A80",
"a. c #7F808E",
"s. c #7586A6",
"d. c #6989B3",
"f. c #788CB9",
"g. c #7E95BD",
"h. c #1583DE",
"j. c #2286DC",
"k. c #348ADF",
"l. c #0D84E4",
"z. c #0A85E9",
"x. c #1B88EB",
"c. c #088BF6",
"v. c #0083FE",
"b. c #0B85F9",
"n. c #008CFE",
"m. c #0C8CFA",
"M. c #1584F5",
"N. c #178EF4",
"B. c #1A8AF5",
"V. c #0092FE",
"C. c #2988EC",
"Z. c #2E91EA",
"A. c #2389F6",
"S. c #4B86CA",
"D. c #5389CC",
"F. c #5B92CB",
"G. c #468CD5",
"H. c #4D93D8",
"J. c #5293DC",
"K. c #6B94C5",
"L. c #799CCA",
"P. c #6DA1DD",
"I. c #4F94E1",
"U. c #57A4F6",
"Y. c #998588",
"T. c #938B95",
"R. c #AD8482",
"E. c #A88787",
"W. c #AB8D83",
"Q. c #B28684",
"!. c #B38C82",
"~. c #BB8B82",
"^. c #B88C89",
"/. c #AF948C",
"(. c #B3938A",
"). c #BA958D",
"_. c #AB8E91",
"`. c #B58F92",
"'. c #AF9193",
"]. c #AD979C",
"[. c #B89795",
"{. c #B2999D",
"}. c #8086AC",
"|. c #9A8EA0",
" X c #8193AB",
".X c #9B97A5",
"XX c #8B9BB4",
"oX c #869DBF",
"OX c #AD9DA4",
"+X c #B49BA1",
"@X c #B09FA9",
"#X c #8EA0BB",
"$X c #9BA5BD",
"%X c #B1A2A9",
"&X c #A6A6B4",
"*X c #81A6D2",
/* pixels */
"w.w.w.w.w.w.w.w.w.w.w.w.w.w.w.w.w.w.w.w.w.w.w.w.w.w.w.w.w.w.w.w.w.w.w.w.w.w.w.w.",
"w.w.w.w.w.w.w.w.w.w.w.w.w.w.w.w.w.w.w.w.w.w.w.w.w.w.w.w.w.w.w.w.w.w.w.w.w.w.w.w.",
"w.w.w.w.w.w.w.w.e.w.w.w.w.w.w.w.w.w.w.w.w.w.w.w.w.w.w.w.w.w.w.w.w.w.w.w.w.w.w.e.",
"w.w.w.w.w.w.w.w.w.w.w.w.w.w.w.e.w.w.e.w.e.w.e.e.w.w.e.w.w.w.w.w.w.e.w.w.w.w.w.w.",
"w.w.w.w.w.w.w.w.e.e.e.e.w.e.w.w.e.e.w.e.C.D.K.L.P.U.A.w.e.e.w.w.w.e.w.w.e.w.e.w.",
"w.e.e.w.w.w.w.e.e.w.e.w.e.e.e.w.w.q.0.8.6.k k / Y.T.#XP.A.e.e.e.e.e.e.e.e.e.w.e.",
"e.w.e.w.e.w.e.e.e.e.e.e.e.e.w.r.S.s.y.R.%.%.$.$.#.` ` Y.*XI.e.e.e.e.e.w.e.e.w.e.",
"e.e.e.w.e.e.e.e.e.e.e.e.e.e.q.s.Y.E.%.O.+.o.+.&.@.<.1.W./.#XM.e.v.e.e.e.v.e.v.e.",
"e.e.e.e.v.e.e.e.v.e.e.v.e.l.s.E.W.Q.$.O.o.o.o.@.@.@.*.).]..XA.w.e.v.e.e.e.e.e.e.",
"e.e.v.e.e.e.e.e.e.e.e.e.v.d.-.(.!.>.<.@.@.+.+.o.+.+.&.1.[.@XJ.e.e.e.e.v.e.v.v.e.",
"e.e.e.e.e.e.v.e.e.e.v.r.G.-.,.(.` _ ^ $.@.@.&.@.+.@.@.=.^.+X$XM.e.v.v.e.v.v.e.e.",
"v.e.e.v.v.e.e.e.v.v.e.k.-.,.,.z q 5 4 r K  .&.&.+.@.=.1.Q.[.@XI.v.e.v.v.v.e.v.v.",
"e.v.v.v.e.v.v.v.e.v.M.7.E >.( q 4 , O # * C { o.+.=.=.p.Q.`.+XL.b.v.e.e.v.e.e.v.",
"e.v.e.v.v.e.e.v.e.b.K.t.^ !.l 6 4 , # $ % t U ' ' ! { %.`.E.{.$XM.e.v.v.v.v.v.e.",
"v.v.e.e.v.v.e.e.v.Z.XX/ W.>.E 4 $ X X   . : D D M b p s i._.{.&XM.v.v.v.e.v.v.v.",
"e.v.v.v.e.v.v.v.C.7.( R.~.=...f = O X # = V  .G e * < < e _.OX#Xb.v.v.e.v.v.v.v.",
"v.e.v.e.e.v.v.v.u.! -.).2.2.@.W f 6 = 6 P } | A $ o > @ @ 8 OXoXb.v.v.v.e.v.v.v.",
"v.v.v.v.v.v.v.B.y...W.).~.~.2.*.@. .U [ | | =.P O X @ . @ > x K.v.v.v.v.v.v.v.v.",
"v.v.v.v.v.v.v.b.y.#.).).2.2.@.+.U U +.@.| | p.R @ X o + > , z I.c.v.v.v.v.v.v.v.",
"v.v.v.v.v.v.v.v.}.p.[.<.o. .I m m H U v F F { ! e O o > , 0 6.x.v.v.v.v.v.v.v.v.",
"v.v.v.v.v.v.n.v.f.^.[.&.X.D v D U ] D i c ; 1 P M s 5 8 j ) d.m.v.v.v.v.v.v.v.v.",
"v.v.v.v.v.v.v.v.D.|.(.O. .B P U ] [ I n ; & & c M H ~ ` y.].k.b.n.v.n.v.n.v.n.v.",
"v.v.v.v.v.v.v.n.v.F.!.$.o.P t y n n D H S i y 2 c S ! p.'..XN.n.v.v.v.v.v.v.v.n.",
"n.v.v.n.n.v.v.v.v.g.!.;.o.[ C K ;.;.~ v v n B y 2 v A %.{..Xm.v.n.v.n.n.v.n.v.n.",
"v.v.n.v.v.n.v.v.n.XX3.;.;.@.*.+.W ~ W.>.N ; 2 i ; c V _ +XS.v.n.v.v.n.v.n.n.n.v.",
"v.n.v.v.n.v.c.n.c.XX3.<.<.@.*.@.| Y F G Q f % - t y Z ( oXv.n.v.n.v.n.v.n.v.v.n.",
"n.v.n.n.v.n.v.n.V.$X).3.*.@.@. .' J J F F s & e b N E T.B.n.n.v.v.n.v.n.v.n.v.n.",
"v.n.v.n.n.v.n.v.Z.&X(.3.<.*.+.+.U H F B A Q A C V L y.H.n.v.n.n.n.n.n.n.n.n.n.n.",
"v.n.v.n.n.v.n.v.Z.%X/.,.<.<.&.+.| [ J S G P P V Z / F.n.n.n.n.n.n.n.n.n.n.n.n.n.",
"n.n.n.n.n.n.n.c.c. XW.:.X. .| [ [ [ [ ' P L L g k s.m.n.n.n.n.n.n.n.n.n.n.n.n.n.",
"n.n.n.n.n.n.n.n.n.x.a.^ L K C P I H H { ~ E k k 7.N.n.n.n.n.n.n.n.n.n.n.n.n.n.n.",
"n.n.n.n.n.n.n.n.n.V.h.l f u u u a b b V T T k x C.n.n.n.n.n.n.n.n.n.n.n.V.n.n.V.",
"n.n.n.n.n.n.n.n.n.n.n.0.d e : : : : w 6 j z 5.j.n.n.V.n.V.n.n.n.n.n.V.n.V.V.V.V.",
"n.n.n.n.n.n.V.n.n.n.n.n.h.h 9 5 7 3 4.9.l.z.c.n.V.n.V.n.V.V.V.V.n.V.n.V.V.V.V.V.",
"n.n.n.V.n.n.n.V.V.n.n.V.n.c.l.l.z.c.V.V.n.V.n.n.V.n.n.V.V.V.V.V.V.n.V.V.V.V.V.V.",
"V.V.n.n.V.n.V.n.n.V.V.n.V.V.n.n.n.V.c.V.V.n.V.V.V.V.n.V.V.V.V.V.V.V.n.V.V.V.V.V.",
"n.V.n.V.n.V.V.n.n.V.V.V.V.n.V.V.V.V.V.V.V.V.V.V.V.n.V.V.V.V.V.V.V.V.V.V.V.V.V.V.",
"n.V.V.n.n.V.n.V.V.V.V.V.V.V.n.V.V.V.V.V.V.V.V.V.V.V.V.V.V.V.V.V.V.V.V.V.V.V.V.V.",
"V.V.V.V.V.V.V.V.V.V.V.V.V.V.V.V.V.V.V.V.V.V.V.V.V.V.V.V.V.V.V.V.V.V.V.V.V.V.V.V.",
"V.V.V.V.V.V.V.V.V.V.V.V.V.V.V.V.V.V.V.V.V.V.V.V.V.V.V.V.V.V.V.V.V.V.V.V.V.V.V.V."
};
