/* XPM */
static char *result[] = {
/* columns rows colors chars-per-pixel */
"40 40 182 2 ",
"   c #161627",
".  c #1D1C2B",
"X  c #1F1F30",
"o  c #221E2C",
"O  c #3D1D2A",
"+  c #3A1C30",
"@  c #24212E",
"#  c #28232F",
"$  c #262534",
"%  c #2A2A36",
"&  c #342C35",
"*  c #322C39",
"=  c #37313D",
"-  c #3B343B",
";  c #41353D",
":  c #4B3A3F",
">  c #563737",
",  c #5D3B39",
"<  c #723E3E",
"1  c #63403C",
"2  c #393745",
"3  c #383844",
"4  c #453C44",
"5  c #453F46",
"6  c #753F45",
"7  c #49444B",
"8  c #594346",
"9  c #544F5B",
"0  c #53505D",
"q  c #6C4344",
"w  c #644A47",
"e  c #744444",
"r  c #794848",
"t  c #7C4C4D",
"y  c #76524A",
"u  c #7A534D",
"i  c #605456",
"p  c #7B5A55",
"a  c #7E605A",
"s  c #4A5473",
"d  c #6B6469",
"f  c #7C6263",
"g  c #72666A",
"h  c #7B6A68",
"j  c #6B6673",
"k  c #83414D",
"l  c #834C4B",
"z  c #8B4E4F",
"x  c #84524D",
"c  c #944D57",
"v  c #8C5550",
"b  c #855852",
"n  c #8A5A55",
"m  c #825B5A",
"M  c #8A5A59",
"N  c #925554",
"B  c #935B55",
"V  c #985857",
"C  c #975658",
"Z  c #985758",
"A  c #945B59",
"S  c #8D605D",
"D  c #966159",
"F  c #9A665B",
"G  c #9B645D",
"H  c #A05E62",
"J  c #8B6764",
"K  c #896A68",
"L  c #966060",
"P  c #9B6562",
"I  c #956B63",
"U  c #9B6A63",
"Y  c #916C6B",
"T  c #9E6B69",
"R  c #83716D",
"E  c #9D7266",
"W  c #947269",
"Q  c #9B726E",
"!  c #9C796F",
"~  c #89787C",
"^  c #937472",
"/  c #957873",
"(  c #977B7A",
")  c #A26661",
"_  c #A46E65",
"`  c #AA6C65",
"'  c #AC6768",
"]  c #A46B69",
"[  c #A57267",
"{  c #A6726C",
"}  c #AD746B",
"|  c #A1796D",
" . c #AC796E",
".. c #B1756D",
"X. c #B2796F",
"o. c #A47772",
"O. c #AF7572",
"+. c #AC7D79",
"@. c #B77372",
"#. c #B27B73",
"$. c #B37C7A",
"%. c #AF8076",
"&. c #A48279",
"*. c #B2847C",
"=. c #BA847D",
"-. c #3D5B84",
";. c #335988",
":. c #2364A4",
">. c #3C72B5",
",. c #4B658B",
"<. c #4D729B",
"1. c #616C85",
"2. c #7B7787",
"3. c #776C90",
"4. c #4C75A1",
"5. c #557AA6",
"6. c #5D7DAC",
"7. c #487CB4",
"8. c #637EAB",
"9. c #1D78DB",
"0. c #397ECB",
"q. c #1578E7",
"w. c #137BEC",
"e. c #0B7AF3",
"r. c #0076FE",
"t. c #007BFE",
"y. c #0A7DF9",
"u. c #827698",
"i. c #6C86AC",
"p. c #7587A7",
"a. c #768DBA",
"s. c #7390BF",
"d. c #3A81CD",
"f. c #358ADD",
"g. c #0D85E9",
"h. c #1787EF",
"j. c #1885EC",
"k. c #0D83F5",
"l. c #0E8CF4",
"z. c #0083FE",
"x. c #0983FA",
"c. c #008CFE",
"v. c #098EFC",
"b. c #1382F4",
"n. c #148BF4",
"m. c #0092FE",
"M. c #2284E5",
"N. c #2788E7",
"B. c #3089E1",
"V. c #5B8FCB",
"C. c #4886D2",
"Z. c #5C9AD4",
"A. c #6A8FC4",
"S. c #7698C2",
"D. c #639AD2",
"F. c #4298E3",
"G. c #8B8187",
"H. c #9B8283",
"J. c #9D868A",
"K. c #958C96",
"L. c #95909D",
"P. c #AB8382",
"I. c #A58985",
"U. c #AC8C83",
"Y. c #AC8C8C",
"T. c #B38785",
"R. c #B18D83",
"E. c #B38C8B",
"W. c #AD938C",
"Q. c #B59087",
"!. c #B29289",
"~. c #B9938A",
"^. c #B18D92",
"/. c #AD9395",
"(. c #A59699",
"). c #B39293",
"_. c #B2969B",
"`. c #B2989D",
"'. c #848BA1",
"]. c #8C98AB",
"[. c #9996A6",
"{. c #A69BA5",
/* pixels */
"r.r.r.r.r.r.r.r.r.r.r.r.r.r.r.r.r.r.r.r.r.r.r.r.r.r.r.r.r.r.r.r.r.r.r.r.r.r.r.r.",
"r.r.r.r.r.r.r.r.r.r.r.r.r.r.r.r.r.r.r.r.r.r.r.r.r.r.r.r.r.r.r.r.t.r.r.r.r.r.r.r.",
"r.r.r.r.r.r.r.r.r.r.r.r.r.r.r.r.r.r.r.r.r.t.r.r.r.r.r.r.r.r.r.r.r.r.r.r.r.r.r.r.",
"r.r.r.r.r.r.r.r.r.r.t.r.r.t.r.r.t.r.r.t.r.r.r.r.r.r.r.r.t.r.r.r.r.r.r.t.r.r.t.r.",
"r.r.r.r.r.r.r.r.t.r.r.r.r.t.r.r.r.t.r.t.t.r.r.r.t.t.t.t.t.r.r.t.r.t.r.t.t.r.t.r.",
"r.t.t.r.r.r.r.t.r.t.t.t.t.t.t.r.r.w.q.w.w.e.y.t.t.r.r.r.r.t.r.t.t.t.t.r.t.t.r.t.",
"r.t.r.t.t.r.t.t.t.t.t.t.t.t.y.9.,.j g g d 1.0.j.y.t.r.t.t.r.t.t.t.t.t.r.t.t.t.t.",
"t.t.t.t.r.t.t.t.t.t.t.t.t.e.7.Y J I F I I W ~ 6.M.y.z.t.t.z.t.t.t.t.t.t.z.t.t.t.",
"t.t.t.t.t.t.t.t.t.t.t.t.j.8.J.u.X.} ..} } ..$.I.i.b.t.t.t.t.z.t.t.t.z.z.t.t.t.z.",
"t.t.t.t.t.t.z.t.z.t.t.b.p.W.P.+. .} } } } } X.$.^.s.b.y.z.t.z.t.z.t.t.t.z.t.t.t.",
"t.t.z.t.z.t.t.t.t.t.x.i.W.W.%.%.X. .} } } } ..X.*._.A.y.z.t.t.z.t.t.z.t.t.t.z.z.",
"z.t.z.t.t.t.z.z.z.z.f.I.W.*.%.%. .......} ....#.*.).{.B.t.z.t.z.z.z.t.z.z.z.z.t.",
"t.z.z.t.z.z.z.t.t.z.i.U.R.*.*.*.#.#.#.X.X.X.X.#.$.E.`.S.x.z.t.z.z.t.z.t.z.t.z.z.",
"z.t.t.z.z.t.t.z.z.b.G.U.U.&.h a S F  . . .X.#.$.T.E.`.[.b.z.z.t.t.z.z.z.z.z.t.t.",
"z.t.z.z.t.t.z.z.t.d./ I.d 5 3 % ; y D ) ) P M m o.^._.{.M.z.z.z.t.z.z.t.z.t.z.z.",
"t.z.z.t.z.z.z.t.x.5.&.h 7 = % $ & O r B B t 8 4 8 K /.{.B.z.t.z.z.z.z.z.z.z.z.z.",
"z.z.t.z.z.z.z.z.l.>.&.R 7 - % . # & 1 [ n - X = + 4 i W.B.z.z.z.z.z.z.z.z.z.z.z.",
"t.z.z.z.z.z.z.z.z.i.&.&.9 ; # @ # ; D ..P o   o * 2 7 R j.z.z.z.z.z.z.z.z.z.z.z.",
"z.z.z.z.z.z.z.z.5.~ !.*.E w ; - : b ` @.O.4 . o $ 2 0 u.j.x.z.z.z.z.z.z.z.z.z.z.",
"z.z.z.z.z.t.z.x.3.I.~.=.%. .T F _ _ @.@.O.M ; $ 2 9 u.'.k.c.z.z.z.z.z.z.z.z.z.z.",
"z.z.z.z.z.z.z.x.u.Y.Q.=.=.=.X.} ` _ ' ' @.] G m m Y Y.K.N.c.z.z.z.z.c.z.c.z.z.z.",
"z.z.z.z.z.z.z.z.i.P.Q.%. .` F D ) 1 e l t T P ` { +.!.[.h.z.z.z.z.z.z.z.z.z.c.z.",
"z.z.c.z.z.c.z.z.V.E.R.E F D B _ _ l < 1 6 C v A T +._.a.z.c.c.z.z.c.c.z.z.c.z.c.",
"z.z.c.z.z.z.c.c.N./.W.U _ n P { ` P B B L L v l M Q !.C.z.z.z.c.z.c.z.z.c.z.z.c.",
"c.z.z.c.z.z.c.z.z.n.(.| [ n x x l z N N A T M t n ^ {.b.z.z.c.z.z.z.c.z.c.c.c.z.",
"z.c.z.c.c.z.z.c.z.v.L.| [ F F ) H c k k t q e x F u.D.z.z.c.z.c.c.c.c.z.c.z.z.z.",
"z.c.c.z.c.g.c.z.z.c.].! E [  .} G Z Z C P T n n U L.v.c.c.z.c.c.z.z.c.z.z.c.c.c.",
"c.z.z.c.z.z.c.c.c.c.s.&.&.| [ _ ) V v A L T U J W S.c.c.c.c.c.z.c.c.c.c.c.c.c.c.",
"c.z.c.z.c.c.z.c.c.c.D.U.&. . . ...` ) G P U ! Y J.F.c.c.c.c.c.z.c.c.c.c.c.c.c.c.",
"c.c.c.c.c.c.c.c.c.c.Z.W.&.&. .#.} ` ` ..o.Q ( ( {.v.c.c.c.c.c.c.c.c.c.c.c.c.c.c.",
"c.c.c.c.c.c.c.c.c.c.l.p.W W I F G P G G ! / ( H.].n.c.c.c.c.c.c.c.c.m.c.c.c.c.c.",
"c.c.c.c.c.c.c.c.c.m.m.g.h a p u u u u u p f f 2.f.l.c.m.c.c.c.c.c.c.c.c.c.c.m.m.",
"c.c.c.c.c.c.c.c.c.c.c.c.4.y 1 1 , , > > > s >.l.c.c.m.c.m.c.m.c.c.c.m.c.m.m.m.m.",
"c.c.c.c.m.c.c.c.m.c.c.c.l.<.,.-.-.;.;.:.g.c.m.c.m.c.m.c.m.m.c.m.m.c.c.m.m.m.m.m.",
"c.m.c.c.c.c.c.m.c.c.m.c.m.c.m.c.c.m.v.m.c.c.c.c.c.m.c.m.m.m.m.m.c.m.m.m.m.m.m.m.",
"m.c.c.m.m.c.m.c.c.m.c.m.c.c.m.m.c.m.c.m.m.m.m.m.m.m.c.m.m.m.m.m.m.m.c.m.m.m.m.m.",
"c.m.c.m.c.m.m.c.m.c.m.m.m.c.m.m.m.m.m.m.m.m.m.m.m.c.m.m.m.m.m.m.m.m.m.m.m.m.m.m.",
"c.m.m.c.c.m.c.m.m.m.m.m.m.m.m.m.m.m.m.m.m.m.m.m.m.m.m.m.m.m.m.m.m.m.m.m.m.m.m.m.",
"m.m.m.m.m.m.m.m.m.m.m.m.m.m.m.m.m.m.m.m.m.m.m.m.m.m.m.m.m.m.m.m.m.m.m.m.m.m.m.m.",
"m.m.m.m.m.m.m.m.m.m.m.m.m.m.m.m.m.m.m.m.m.m.m.m.m.m.m.m.m.m.m.m.m.m.m.m.m.m.m.m."
};
