/* XPM */
static char *result[] = {
/* columns rows colors chars-per-pixel */
"40 40 254 2 ",
"   c black",
".  c #000001",
"X  c #000102",
"o  c #000103",
"O  c #000203",
"+  c #000204",
"@  c #000205",
"#  c #000306",
"$  c #000407",
"%  c #000509",
"&  c #00050B",
"*  c #00060A",
"=  c #00070E",
"-  c #00080F",
";  c #000910",
":  c #000911",
">  c #000912",
",  c #000A13",
"<  c #000A14",
"1  c #000B15",
"2  c #000C18",
"3  c #000D18",
"4  c #000F1C",
"5  c #000E1D",
"6  c #00101E",
"7  c #00111F",
"8  c #001121",
"9  c #001224",
"0  c #001324",
"q  c #001426",
"w  c #001427",
"e  c #001528",
"r  c #00162A",
"t  c #00162C",
"y  c #001830",
"u  c #001A31",
"i  c #001B34",
"p  c #001C37",
"a  c #001E37",
"s  c #001D39",
"d  c #001E39",
"f  c #00213F",
"g  c #00223F",
"h  c #002241",
"j  c #002343",
"k  c #002442",
"l  c #002649",
"z  c #002749",
"x  c #00264A",
"c  c #00294E",
"v  c #002A4F",
"b  c #002B53",
"n  c #002B55",
"m  c #002D54",
"M  c #002D55",
"N  c #002D56",
"B  c #002F58",
"V  c #002D5B",
"C  c #00315B",
"Z  c #00305F",
"A  c #00325F",
"S  c #003366",
"D  c #003464",
"F  c #003466",
"G  c #003568",
"H  c #003A6C",
"J  c #003A6D",
"K  c #00396E",
"L  c #003B6F",
"P  c #003D6F",
"I  c #003973",
"U  c #003E73",
"Y  c #003E78",
"T  c #00417D",
"R  c #004681",
"E  c #004583",
"W  c #004284",
"Q  c #004887",
"!  c #004589",
"~  c #00478C",
"^  c #00478D",
"/  c #00498A",
"(  c #00498B",
")  c #004B8D",
"_  c #004C93",
"`  c #004B96",
"'  c #005196",
"]  c #00539B",
"[  c #00509C",
"{  c #00509E",
"}  c #00519E",
"|  c #00539F",
" . c #00559E",
".. c #00559F",
"X. c #0056A0",
"o. c #0059AA",
"O. c #005BAA",
"+. c #005CAE",
"@. c #005DAE",
"#. c #005BB1",
"$. c #005DB1",
"%. c #005FB1",
"&. c #005FB9",
"*. c #005FBB",
"=. c #005EBC",
"-. c #0060B3",
";. c #0061B6",
":. c #0062B8",
">. c #0065BF",
",. c #0067BE",
"<. c #0066C2",
"1. c #0066C5",
"2. c #0066CD",
"3. c #006FCA",
"4. c #006ECB",
"5. c #006DCD",
"6. c #006ECE",
"7. c #0069D1",
"8. c #006ED3",
"9. c #006DD5",
"0. c #006ED4",
"q. c #0073D1",
"w. c #0071D2",
"e. c #0071D3",
"r. c #0072D3",
"t. c #0072D4",
"y. c #0072D5",
"u. c #0076DD",
"i. c #0077DD",
"p. c #0077E4",
"a. c #0077E7",
"s. c #007CE3",
"d. c #007AE4",
"f. c #0073E8",
"g. c #0076EB",
"h. c #007AE9",
"j. c #007DEA",
"k. c #0078ED",
"l. c #0078EE",
"z. c #007DEE",
"x. c #007FEE",
"c. c #0078F0",
"v. c #007BF3",
"b. c #007CF2",
"n. c #007DF5",
"m. c #007EF5",
"M. c #007CF7",
"N. c #007EF6",
"B. c #0077FD",
"V. c #0076FE",
"C. c #0077FE",
"Z. c #0077FF",
"A. c #0177FF",
"S. c #007DF8",
"D. c #0078FD",
"F. c #007AFC",
"G. c #007AFD",
"H. c #007BFD",
"J. c #0078FE",
"K. c #0079FE",
"L. c #007AFE",
"P. c #007BFE",
"I. c #007AFF",
"U. c #007CFD",
"Y. c #007DFD",
"T. c #007FFC",
"R. c #007CFE",
"E. c #017CFE",
"W. c #007DFE",
"Q. c #017DFE",
"!. c #007EFE",
"~. c #017EFE",
"^. c #007FFE",
"/. c #017FFE",
"(. c #007EFF",
"). c #017EFF",
"_. c #007FFF",
"`. c #0082F3",
"'. c #0080F4",
"]. c #0081F6",
"[. c #0081F7",
"{. c #0086F4",
"}. c #0085F6",
"|. c #0084F7",
" X c #0086F7",
".X c #0083F9",
"XX c #0081FB",
"oX c #0084F9",
"OX c #0085F9",
"+X c #0085FB",
"@X c #0087FA",
"#X c #0081FC",
"$X c #0081FD",
"%X c #0083FD",
"&X c #0080FE",
"*X c #0081FE",
"=X c #0080FF",
"-X c #0081FF",
";X c #0181FF",
":X c #0082FE",
">X c #0083FE",
",X c #0083FF",
"<X c #0084FC",
"1X c #0085FC",
"2X c #0084FD",
"3X c #0085FD",
"4X c #0086FD",
"5X c #0087FD",
"6X c #0084FE",
"7X c #0085FE",
"8X c #0084FF",
"9X c #0086FE",
"0X c #0087FE",
"qX c #0086FF",
"wX c #0088FC",
"eX c #0088FD",
"rX c #008BFD",
"tX c #0088FE",
"yX c #0089FE",
"uX c #0189FE",
"iX c #0089FF",
"pX c #0189FF",
"aX c #008AFE",
"sX c #008BFE",
"dX c #008AFF",
"fX c #008BFF",
"gX c #008CFE",
"hX c #008DFE",
"jX c #008CFF",
"kX c #008DFF",
"lX c #008EFE",
"zX c #008FFE",
"xX c #008FFF",
"cX c #0090FD",
"vX c #0092FD",
"bX c #0093FD",
"nX c #0090FE",
"mX c #0091FE",
"MX c #0090FF",
"NX c #0092FE",
"BX c #0093FE",
"VX c #0092FF",
"CX c #0095FC",
"ZX c #0094FD",
"AX c #0095FD",
"SX c #0195FD",
"DX c #0096FD",
"FX c #0196FD",
"GX c #0094FE",
"HX c #0194FE",
"JX c #0095FE",
"KX c #0195FE",
"LX c #0195FF",
"PX c #0197FE",
/* pixels */
"Z.Z.V.Z.V.V.V.Z.V.C.Z.V.C.Z.Z.Z.C.Z.Z.Z.Z.Z.Z.Z.Z.Z.Z.Z.C.V.Z.C.Z.C.Z.Z.Z.C.C.Z.",
"Z.A.V.V.A.Z.A.V.Z.B.C.Z.C.C.C.C.Z.Z.C.B.J.Z.Z.C.C.Z.Z.Z.J.C.Z.J.J.J.C.Z.J.Z.C.J.",
"Z.Z.V.Z.Z.Z.J.J.J.J.C.D.K.K.J.K.D.J.K.K.K.K.D.K.D.K.D.D.K.K.K.D.J.J.J.D.D.D.K.K.",
"C.J.J.J.J.J.D.D.K.K.K.K.K.K.K.K.K.K.K.K.K.K.K.K.K.K.K.I.K.K.D.K.K.K.K.K.K.K.K.K.",
"J.K.K.K.J.J.K.K.I.K.L.L.I.L.L.G.L.G.G.L.L.G.F.G.G.H.F.L.L.G.G.L.L.L.L.L.H.G.P.H.",
"K.L.K.K.K.L.L.H.H.H.H.H.U.H.U.H.H.U.U.H.H.H.H.H.U.H.U.R.H.U.H.L.U.U.H.H.U.U.R.U.",
"G.U.H.H.P.H.H.U.R.R.U.Y.W.W.R.H.R.W.U.U.R.W.U.R.W.R.W.W.Y.Y.W.R.W.W.U.W.W.W.W.W.",
"H.R.R.H.R.W.E.U.W.R.W.W.W.W.~.W.).W.W.W.W.W.W.W.W.Y.Y.W.W.W.W.).).W.W.).~.W.W.).",
"W.H.U.W.W.Y.W.W.W.W.W.~.Q.W.~.).).~.~.W.!.).~.~.~.!.Y.~.(.!.!.(.).(.!./.(./.f.2.",
"W.R.Q.).W.~.~.~.).!.^./.)._._._.^.^.^.^.^._._.^.=X^.=X=X^.^.=X=X=X=X=X=X=X=.5 ` ",
"~.).~.^.^.^.=X_._.=X=X=X=X=X_.=X=X=X^.=X^.=X=X=X=X=X=X=X=X=X^.=X=X=X&Xl.I &   ^ ",
"_.=X=X=X=X=X=X=X=X=X=X=X=X=X=X=X=X=X=X=X=X=X&XM.=X=X=X=X=X=X=X=X=X=Xc.S V W   p ",
"=X=X=X=X=X=X=X=X=X=X=X=X=X=X;X=X=X*X=X=X*X=X7.! =X=Xk.-X-X-X-X=X*X=Xv.v.-XS.@ > ",
"=X=X=X=X=X=X=X=X&X*X-X*X*X*X*X-X*X*X*X-X*X*Xs y n.{ Z *X*X*X*X:X*X*X*X*X$X*XG n ",
"=XT.g.=X=X*X*X*X*X*X*X:X:X:X:X*X:X:X*X*X:X$X9 O [   ~ :X:X:X:X:X:X:X:X:X:X:X*.#.",
"*X9.F *X:X:X:X:X:X:X:X:X:X$X:X:X:X:X:X:X:X$Xy   t + a.,X,X:X,X,X,X:X,X,X,X:Xm.>X",
":X} - N.:X:X>X:X:X:X:X:X:X:X,X:X,X:X,X:X,Xb..     i #X,X,X,X,X0.,X>X>X%X6X>X>X>X",
":X2   &.:X:X>X>X>X,X,X,X>X>X>X>X>X>X>X>X>XXXj     = K 8X6X>X8Xf 1.,X,X,X>X6X2X6X",
",X    Y >X>X,X6X,X>X2X>X2X>X,X,X,X2X2X6X_ c u   + h h.6X6X2X7X< i <X2X2X2X7X7X2X",
">X%   d 6X6X6X7X6X6X2X6X7X6X6X>X6X6X2X7XT X x ( $.7X7X7X7X7X7Xf   8.7X7X7X7X7X7X",
"z.&   # p.7X7X7X7X7X7X7X7X7X7X2X2X7X7X7X].o.7X7X7X7X7XqXqX7X7Xl   M '..X7X9XqXqX",
"<.      D <X3XqX7XqX7X7XqX7X7X7X7X7X9XqXqX7XqX7XqX7X9X9XqX9X9X:.@     | oX+X5X5X",
"[.:       b A >.qXqX9X9X9X9X9X9X4X9X4X9X4X1X4X4X9X9X4X4X9X5XtX/ , .   # e m x.5X",
"9XE         7 ;.5X0X5X5X4X4X5X5X4X4XOX+.N r y.5X5X5X5XtX5X5XtXg $ -.L C ..j.eXeX",
"J 1         8 Q 5.5XtXtX0X0X0X5X|.' q     ] 5XtXtX5XtXtXtX5XtXd.@.tXeX5XtXtXtXtX",
"v     3 ;       o 6 H @.tXtX`.) 4 .       u.tXyXtXtXtXtXtXyXtXpXtXtXtXiXyXyXyXfX",
"O.w a i.x.X.B q z U R 6.tXtXw.%.e.d. .    t.aXaXdXaXyXiXdXdXdXsXdXaXsXaXsXsXsXjX",
"tXr. XaXuXyXwX}.@XyXyXyXaXyXiXyXaXiX,.    4.sXjXjXsXjXsXfXsXjXsXjXjXjXfXjXjXjXjX",
"sXaXsXsXaXsXsXsXsXfXsXsXsXfXjXsXsXjXq.  * {.jXjXjXjXjXjXjXjXsXjXjXjXjXjXjXjXjXjX",
"jXjXjXsXjXjXjXjXsXjXjXjXjXjXjXjXjXjXrX0 P jXjXjXjXjXjXjXjXjXkXjXjXjXjXjXjXjXjXjX",
"jXjXjXjXjXjXjXjXjXsXjXjXjXjXjXsXjXjXjXk s.hXkXkXgXjXhXjXjXjXhXkXjXkXhXhXhXlXlXlX",
"jXgXgXjXjXjXjXhXjXkXjXjXkXjXjXjXjXkXkX3.hXhXhXhXlXhXlXlXlXhXlXlXlXlXlXlXlXlXlXlX",
"hXhXhXhXhXhXhXhXlXhXkXlXhXlXlXlXlXlXlXhXlXlXlXlXlXlXlXlXlXlXlXxXxXlXxXxXxXzXzXzX",
"lXlXlXlXlXlXlXlXlXlXlXlXlXlXlXlXlXxXlXxXlXxXxXzXxXxXzXxXzXzXMXxXnXnXnXnXnXnXmXmX",
"lXlXlXxXxXxXxXlXlXxXxXzXzXzXzXxXzXxXzXzXnXnXnXnXnXnXmXcXmXcXcXmXmXmXcXcXmXmXmXmX",
"xXxXzXxXzXxXzXzXnXcXcXcXcXcXcXmXcXcXmXmXmXmXcXmXmXmXmXmXmXmXVXVXVXmXmXmXNXVXVXNX",
"nXnXcXcXcXcXcXcXcXmXmXmXmXmXmXmXmXmXmXVXmXmXVXmXVXVXNXNXNXNXNXNXNXBXBXbXbXbXbXbX",
"mXmXmXmXmXmXmXmXVXmXvXNXNXNXNXNXvXbXNXBXbXbXbXbXbXbXbXbXbXbXGXGXGXGXGXGXGXGXGXGX",
"mXNXNXNXVXNXNXbXbXbXGXBXbXbXbXbXHXbXGXZXZXZXZXZXGXZXGXGXGXGXGXLXAXJXZXZXAXAXFXSX",
"NXNXBXBXbXbXbXbXGXGXbXGXbXZXGXGXGXGXGXKXGXKXKXKXAXAXAXAXAXCXAXAXFXDXDXFXFXPXDXDX"
};
